<svg xmlns="http://www.w3.org/2000/svg" viewBox="0 0 760 440" width="760" height="440" font-family="Malgun Gothic, 맑은 고딕, sans-serif">
<rect width="760" height="440" fill="#FFFFFF"/>
<text x="10" y="27" font-size="16" font-weight="700" fill="#1F2937">씨피시스템 — 가장 나빴던 상승 갭</text>
<text x="10" y="47" font-size="12" fill="#667085">2026.01.29 신호 · 뒤 20거래일 -30.89%</text>
<line x1="12" y1="253.7" x2="690" y2="253.7" stroke="#F0F1F3" stroke-width="1"/>
<text x="696" y="257.3" font-size="10" fill="#667085">3,000</text>
<line x1="12" y1="200.0" x2="690" y2="200.0" stroke="#F0F1F3" stroke-width="1"/>
<text x="696" y="203.6" font-size="10" fill="#667085">4,000</text>
<line x1="12" y1="146.3" x2="690" y2="146.3" stroke="#F0F1F3" stroke-width="1"/>
<text x="696" y="149.9" font-size="10" fill="#667085">5,000</text>
<line x1="12" y1="92.6" x2="690" y2="92.6" stroke="#F0F1F3" stroke-width="1"/>
<text x="696" y="96.2" font-size="10" fill="#667085">6,000</text>
<polyline points="85.0,262.3 88.8,263.1 92.5,261.6 96.3,258.8 100.0,255.9 103.8,252.8 107.5,247.9 111.3,244.3 115.0,241.0 118.8,238.5 122.5,236.0 126.2,232.7 130.0,230.2 133.7,227.3 137.5,224.7 141.2,222.9 145.0,219.2 148.7,213.9 152.5,208.1 156.2,203.1 160.0,197.1 163.7,192.0 167.5,189.7 171.2,188.8 174.9,187.6 178.7,187.1 182.4,188.5 186.2,189.9 189.9,190.6 193.7,190.5 197.4,190.1 201.2,188.5 204.9,185.6 208.7,182.9 212.4,180.4 216.1,178.0 219.9,176.3 223.6,176.7 227.4,178.0 231.1,177.8 234.9,178.4 238.6,178.7 242.4,179.3 246.1,179.3 249.9,179.3 253.6,178.7 257.4,177.8 261.1,175.4 264.8,173.8 268.6,173.0 272.3,172.1 276.1,173.0 279.8,174.2 283.6,175.5 287.3,176.5 291.1,177.2 294.8,178.3 298.6,179.0 302.3,179.2 306.0,180.6 309.8,182.5 313.5,182.6 317.3,182.4 321.0,182.1 324.8,178.4 328.5,174.9 332.3,172.6 336.0,172.1 339.8,171.1 343.5,170.1 347.3,169.2 351.0,168.0 354.7,167.3 358.5,167.0 362.2,165.8 366.0,164.6 369.7,164.1 373.5,164.1 377.2,163.0 381.0,161.5 384.7,158.9 388.5,157.6 392.2,155.6 396.0,154.4 399.7,157.0 403.4,159.7 407.2,160.9 410.9,161.1 414.7,162.1 418.4,162.2 422.2,163.8 425.9,167.9 429.7,170.3 433.4,171.9 437.2,174.8 440.9,176.9 444.6,178.1 448.4,178.8 452.1,180.8 455.9,183.2 459.6,185.8 463.4,188.2 467.1,190.9 470.9,193.1 474.6,195.7 478.4,197.7 482.1,200.1 485.9,203.0 489.6,205.5 493.3,208.7 497.1,211.3 500.8,210.6 504.6,211.8 508.3,212.8 512.1,213.1 515.8,214.2 519.6,214.8 523.3,216.0 527.1,216.9 530.8,217.5 534.5,218.0 538.3,218.7 542.0,218.2 545.8,217.7 549.5,216.7 553.3,215.9 557.0,215.1 560.8,214.0 564.5,212.5 568.3,210.6 572.0,208.6 575.8,207.6 579.5,206.0 583.2,204.9 587.0,204.0 590.7,203.4 594.5,203.4 598.2,203.3 602.0,203.5 605.7,203.3 609.5,203.7 613.2,204.9 617.0,207.0 620.7,209.7 624.4,212.4 628.2,214.7 631.9,216.8 635.7,218.9 639.4,221.9 643.2,224.9 646.9,228.1 650.7,231.4 654.4,234.8 658.2,237.8 661.9,240.9 665.7,244.1 669.4,246.9 673.1,249.7 676.9,252.3 680.6,255.1 684.4,257.6 688.1,259.7" fill="none" stroke="#5B6270" stroke-width="1.4" stroke-dasharray="4 3"/>
<polyline points="234.9,212.6 238.6,211.3 242.4,210.2 246.1,209.0 249.9,207.6 253.6,206.2 257.4,204.7 261.1,203.2 264.8,201.8 268.6,200.7 272.3,199.4 276.1,198.0 279.8,196.7 283.6,195.2 287.3,193.9 291.1,192.7 294.8,191.3 298.6,189.9 302.3,188.4 306.0,187.2 309.8,186.0 313.5,184.5 317.3,183.8 321.0,183.4 324.8,181.8 328.5,180.2 332.3,179.6 336.0,179.1 339.8,178.5 343.5,177.9 347.3,177.1 351.0,176.5 354.7,175.7 358.5,175.1 362.2,174.2 366.0,173.2 369.7,172.9 373.5,173.3 377.2,173.4 381.0,173.3 384.7,173.3 388.5,173.0 392.2,172.4 396.0,171.9 399.7,171.6 403.4,171.1 407.2,170.4 410.9,169.5 414.7,169.0 418.4,168.4 422.2,168.4 425.9,169.6 429.7,170.6 433.4,171.5 437.2,172.4 440.9,172.9 444.6,173.5 448.4,174.0 452.1,174.3 455.9,175.1 459.6,175.8 463.4,176.1 467.1,176.3 470.9,176.5 474.6,177.0 478.4,177.4 482.1,177.9 485.9,178.7 489.6,179.5 493.3,180.3 497.1,181.4 500.8,182.2 504.6,183.1 508.3,183.9 512.1,184.6 515.8,185.2 519.6,185.7 523.3,186.3 527.1,186.9 530.8,187.4 534.5,187.6 538.3,188.1 542.0,188.2 545.8,188.4 549.5,189.8 553.3,191.1 557.0,192.0 560.8,192.7 564.5,193.3 568.3,193.8 572.0,194.6 575.8,195.4 579.5,196.0 583.2,196.5 587.0,197.3 590.7,198.2 594.5,198.8 598.2,199.3 602.0,200.4 605.7,201.3 609.5,202.5 613.2,203.9 617.0,205.4 620.7,206.9 624.4,208.3 628.2,209.4 631.9,210.7 635.7,211.9 639.4,213.3 643.2,214.8 646.9,216.0 650.7,216.5 654.4,217.5 658.2,218.5 661.9,219.3 665.7,220.6 669.4,221.7 673.1,223.0 676.9,224.2 680.6,225.3 684.4,226.5 688.1,227.8" fill="none" stroke="#A6ADB8" stroke-width="1.4" stroke-dasharray="1 0"/>
<line x1="13.9" y1="251.1" x2="13.9" y2="263.7" stroke="#2E6BD6" stroke-width="1"/>
<rect x="12.6" y="255.4" width="2.5" height="1.9" fill="#2E6BD6"/>
<rect x="12.6" y="373.7" width="2.5" height="6.3" fill="#2E6BD6" opacity="0.5"/>
<line x1="17.6" y1="241.1" x2="17.6" y2="261.5" stroke="#2E6BD6" stroke-width="1"/>
<rect x="16.4" y="254.6" width="2.5" height="3.8" fill="#2E6BD6"/>
<rect x="16.4" y="361.1" width="2.5" height="18.9" fill="#2E6BD6" opacity="0.5"/>
<line x1="21.4" y1="255.1" x2="21.4" y2="264.2" stroke="#2E6BD6" stroke-width="1"/>
<rect x="20.1" y="258.0" width="2.5" height="4.8" fill="#2E6BD6"/>
<rect x="20.1" y="377.1" width="2.5" height="2.9" fill="#2E6BD6" opacity="0.5"/>
<line x1="25.1" y1="258.9" x2="25.1" y2="268.3" stroke="#2E6BD6" stroke-width="1"/>
<rect x="23.9" y="261.5" width="2.5" height="6.2" fill="#2E6BD6"/>
<rect x="23.9" y="377.2" width="2.5" height="2.8" fill="#2E6BD6" opacity="0.5"/>
<line x1="28.9" y1="266.6" x2="28.9" y2="273.4" stroke="#2E6BD6" stroke-width="1"/>
<rect x="27.6" y="267.7" width="2.5" height="3.5" fill="#2E6BD6"/>
<rect x="27.6" y="377.7" width="2.5" height="2.3" fill="#2E6BD6" opacity="0.5"/>
<line x1="32.6" y1="270.4" x2="32.6" y2="275.8" stroke="#2E6BD6" stroke-width="1"/>
<rect x="31.4" y="270.7" width="2.5" height="5.1" fill="#2E6BD6"/>
<rect x="31.4" y="378.1" width="2.5" height="1.9" fill="#2E6BD6" opacity="0.5"/>
<line x1="36.3" y1="236.0" x2="36.3" y2="276.3" stroke="#C6403F" stroke-width="1"/>
<rect x="35.1" y="257.5" width="2.5" height="17.5" fill="#C6403F"/>
<rect x="35.1" y="323.8" width="2.5" height="56.2" fill="#C6403F" opacity="0.5"/>
<line x1="40.1" y1="243.3" x2="40.1" y2="260.7" stroke="#C6403F" stroke-width="1"/>
<rect x="38.9" y="254.6" width="2.5" height="4.3" fill="#C6403F"/>
<rect x="38.9" y="362.7" width="2.5" height="17.3" fill="#C6403F" opacity="0.5"/>
<line x1="43.8" y1="228.5" x2="43.8" y2="259.1" stroke="#C6403F" stroke-width="1"/>
<rect x="42.6" y="247.6" width="2.5" height="6.7" fill="#C6403F"/>
<rect x="42.6" y="318.0" width="2.5" height="62.0" fill="#C6403F" opacity="0.5"/>
<line x1="47.6" y1="223.7" x2="47.6" y2="249.7" stroke="#C6403F" stroke-width="1"/>
<rect x="46.3" y="246.8" width="2.5" height="2.4" fill="#C6403F"/>
<rect x="46.3" y="346.2" width="2.5" height="33.8" fill="#C6403F" opacity="0.5"/>
<line x1="51.3" y1="241.9" x2="51.3" y2="257.0" stroke="#2E6BD6" stroke-width="1"/>
<rect x="50.1" y="249.7" width="2.5" height="2.7" fill="#2E6BD6"/>
<rect x="50.1" y="374.8" width="2.5" height="5.2" fill="#2E6BD6" opacity="0.5"/>
<line x1="55.1" y1="237.1" x2="55.1" y2="258.3" stroke="#2E6BD6" stroke-width="1"/>
<rect x="53.8" y="253.7" width="2.5" height="1.1" fill="#2E6BD6"/>
<rect x="53.8" y="359.7" width="2.5" height="20.3" fill="#2E6BD6" opacity="0.5"/>
<line x1="58.8" y1="252.1" x2="58.8" y2="264.5" stroke="#2E6BD6" stroke-width="1"/>
<rect x="57.6" y="254.3" width="2.5" height="10.2" fill="#2E6BD6"/>
<rect x="57.6" y="376.1" width="2.5" height="3.9" fill="#2E6BD6" opacity="0.5"/>
<line x1="62.6" y1="257.5" x2="62.6" y2="267.2" stroke="#2E6BD6" stroke-width="1"/>
<rect x="61.3" y="262.1" width="2.5" height="5.1" fill="#2E6BD6"/>
<rect x="61.3" y="377.5" width="2.5" height="2.5" fill="#2E6BD6" opacity="0.5"/>
<line x1="66.3" y1="259.9" x2="66.3" y2="270.4" stroke="#C6403F" stroke-width="1"/>
<rect x="65.1" y="260.5" width="2.5" height="7.0" fill="#C6403F"/>
<rect x="65.1" y="377.2" width="2.5" height="2.8" fill="#C6403F" opacity="0.5"/>
<line x1="70.1" y1="259.1" x2="70.1" y2="273.6" stroke="#2E6BD6" stroke-width="1"/>
<rect x="68.8" y="264.8" width="2.5" height="5.6" fill="#2E6BD6"/>
<rect x="68.8" y="377.2" width="2.5" height="2.8" fill="#2E6BD6" opacity="0.5"/>
<line x1="73.8" y1="256.7" x2="73.8" y2="270.4" stroke="#2E6BD6" stroke-width="1"/>
<rect x="72.6" y="267.7" width="2.5" height="1.3" fill="#2E6BD6"/>
<rect x="72.6" y="375.8" width="2.5" height="4.2" fill="#2E6BD6" opacity="0.5"/>
<line x1="77.6" y1="262.3" x2="77.6" y2="271.7" stroke="#2E6BD6" stroke-width="1"/>
<rect x="76.3" y="269.3" width="2.5" height="1.6" fill="#2E6BD6"/>
<rect x="76.3" y="378.3" width="2.5" height="1.7" fill="#2E6BD6" opacity="0.5"/>
<line x1="81.3" y1="253.7" x2="81.3" y2="270.9" stroke="#C6403F" stroke-width="1"/>
<rect x="80.1" y="264.8" width="2.5" height="4.8" fill="#C6403F"/>
<rect x="80.1" y="371.7" width="2.5" height="8.3" fill="#C6403F" opacity="0.5"/>
<line x1="85.0" y1="252.7" x2="85.0" y2="273.6" stroke="#2E6BD6" stroke-width="1"/>
<rect x="83.8" y="264.8" width="2.5" height="8.1" fill="#2E6BD6"/>
<rect x="83.8" y="374.5" width="2.5" height="5.5" fill="#2E6BD6" opacity="0.5"/>
<line x1="88.8" y1="268.0" x2="88.8" y2="275.8" stroke="#2E6BD6" stroke-width="1"/>
<rect x="87.6" y="271.5" width="2.5" height="0.9" fill="#2E6BD6"/>
<rect x="87.6" y="378.0" width="2.5" height="2.0" fill="#2E6BD6" opacity="0.5"/>
<line x1="92.5" y1="229.3" x2="92.5" y2="272.3" stroke="#C6403F" stroke-width="1"/>
<rect x="91.3" y="229.3" width="2.5" height="41.6" fill="#C6403F"/>
<rect x="91.3" y="327.6" width="2.5" height="52.4" fill="#C6403F" opacity="0.5"/>
<line x1="96.3" y1="198.2" x2="96.3" y2="219.9" stroke="#C6403F" stroke-width="1"/>
<rect x="95.0" y="206.2" width="2.5" height="4.6" fill="#C6403F"/>
<rect x="95.0" y="318.0" width="2.5" height="62.0" fill="#C6403F" opacity="0.5"/>
<line x1="100.0" y1="195.7" x2="100.0" y2="211.6" stroke="#2E6BD6" stroke-width="1"/>
<rect x="98.8" y="200.6" width="2.5" height="8.6" fill="#2E6BD6"/>
<rect x="98.8" y="362.2" width="2.5" height="17.8" fill="#2E6BD6" opacity="0.5"/>
<line x1="103.8" y1="201.7" x2="103.8" y2="216.2" stroke="#2E6BD6" stroke-width="1"/>
<rect x="102.5" y="205.4" width="2.5" height="5.4" fill="#2E6BD6"/>
<rect x="102.5" y="372.0" width="2.5" height="8.0" fill="#2E6BD6" opacity="0.5"/>
<line x1="107.5" y1="149.6" x2="107.5" y2="208.6" stroke="#C6403F" stroke-width="1"/>
<rect x="106.3" y="177.2" width="2.5" height="30.3" fill="#C6403F"/>
<rect x="106.3" y="318.0" width="2.5" height="62.0" fill="#C6403F" opacity="0.5"/>
<line x1="111.3" y1="177.7" x2="111.3" y2="189.3" stroke="#2E6BD6" stroke-width="1"/>
<rect x="110.0" y="178.6" width="2.5" height="7.3" fill="#2E6BD6"/>
<rect x="110.0" y="372.5" width="2.5" height="7.5" fill="#2E6BD6" opacity="0.5"/>
<line x1="115.0" y1="178.6" x2="115.0" y2="194.7" stroke="#2E6BD6" stroke-width="1"/>
<rect x="113.8" y="181.5" width="2.5" height="6.4" fill="#2E6BD6"/>
<rect x="113.8" y="369.6" width="2.5" height="10.4" fill="#2E6BD6" opacity="0.5"/>
<line x1="118.8" y1="149.0" x2="118.8" y2="201.4" stroke="#2E6BD6" stroke-width="1"/>
<rect x="117.5" y="180.2" width="2.5" height="16.9" fill="#2E6BD6"/>
<rect x="117.5" y="324.3" width="2.5" height="55.7" fill="#2E6BD6" opacity="0.5"/>
<line x1="122.5" y1="180.2" x2="122.5" y2="201.1" stroke="#C6403F" stroke-width="1"/>
<rect x="121.3" y="196.8" width="2.5" height="3.0" fill="#C6403F"/>
<rect x="121.3" y="371.3" width="2.5" height="8.7" fill="#C6403F" opacity="0.5"/>
<line x1="126.2" y1="162.7" x2="126.2" y2="197.6" stroke="#C6403F" stroke-width="1"/>
<rect x="125.0" y="187.1" width="2.5" height="5.9" fill="#C6403F"/>
<rect x="125.0" y="357.1" width="2.5" height="22.9" fill="#C6403F" opacity="0.5"/>
<line x1="130.0" y1="186.3" x2="130.0" y2="208.9" stroke="#2E6BD6" stroke-width="1"/>
<rect x="128.8" y="186.3" width="2.5" height="18.0" fill="#2E6BD6"/>
<rect x="128.8" y="371.9" width="2.5" height="8.1" fill="#2E6BD6" opacity="0.5"/>
<line x1="133.7" y1="202.2" x2="133.7" y2="219.9" stroke="#C6403F" stroke-width="1"/>
<rect x="132.5" y="205.9" width="2.5" height="3.2" fill="#C6403F"/>
<rect x="132.5" y="376.4" width="2.5" height="3.6" fill="#C6403F" opacity="0.5"/>
<line x1="137.5" y1="200.3" x2="137.5" y2="218.3" stroke="#2E6BD6" stroke-width="1"/>
<rect x="136.3" y="201.4" width="2.5" height="15.3" fill="#2E6BD6"/>
<rect x="136.3" y="377.5" width="2.5" height="2.5" fill="#2E6BD6" opacity="0.5"/>
<line x1="141.2" y1="217.5" x2="141.2" y2="229.8" stroke="#C6403F" stroke-width="1"/>
<rect x="140.0" y="223.1" width="2.5" height="1.1" fill="#C6403F"/>
<rect x="140.0" y="377.4" width="2.5" height="2.6" fill="#C6403F" opacity="0.5"/>
<line x1="145.0" y1="191.7" x2="145.0" y2="220.4" stroke="#C6403F" stroke-width="1"/>
<rect x="143.7" y="197.1" width="2.5" height="23.4" fill="#C6403F"/>
<rect x="143.7" y="367.1" width="2.5" height="12.9" fill="#C6403F" opacity="0.5"/>
<line x1="148.7" y1="131.8" x2="148.7" y2="189.3" stroke="#C6403F" stroke-width="1"/>
<rect x="147.5" y="163.2" width="2.5" height="21.5" fill="#C6403F"/>
<rect x="147.5" y="318.0" width="2.5" height="62.0" fill="#C6403F" opacity="0.5"/>
<line x1="152.5" y1="122.2" x2="152.5" y2="166.2" stroke="#C6403F" stroke-width="1"/>
<rect x="151.2" y="154.7" width="2.5" height="3.0" fill="#C6403F"/>
<rect x="151.2" y="335.5" width="2.5" height="44.5" fill="#C6403F" opacity="0.5"/>
<line x1="156.2" y1="150.6" x2="156.2" y2="168.6" stroke="#2E6BD6" stroke-width="1"/>
<rect x="155.0" y="156.8" width="2.5" height="8.3" fill="#2E6BD6"/>
<rect x="155.0" y="373.6" width="2.5" height="6.4" fill="#2E6BD6" opacity="0.5"/>
<line x1="160.0" y1="127.0" x2="160.0" y2="181.0" stroke="#C6403F" stroke-width="1"/>
<rect x="158.7" y="152.2" width="2.5" height="21.5" fill="#C6403F"/>
<rect x="158.7" y="318.0" width="2.5" height="62.0" fill="#C6403F" opacity="0.5"/>
<line x1="163.7" y1="154.7" x2="163.7" y2="175.3" stroke="#2E6BD6" stroke-width="1"/>
<rect x="162.5" y="160.3" width="2.5" height="10.7" fill="#2E6BD6"/>
<rect x="162.5" y="370.6" width="2.5" height="9.4" fill="#2E6BD6" opacity="0.5"/>
<line x1="167.5" y1="147.9" x2="167.5" y2="182.9" stroke="#2E6BD6" stroke-width="1"/>
<rect x="166.2" y="173.7" width="2.5" height="8.6" fill="#2E6BD6"/>
<rect x="166.2" y="365.2" width="2.5" height="14.8" fill="#2E6BD6" opacity="0.5"/>
<line x1="171.2" y1="174.8" x2="171.2" y2="196.8" stroke="#2E6BD6" stroke-width="1"/>
<rect x="170.0" y="182.3" width="2.5" height="6.2" fill="#2E6BD6"/>
<rect x="170.0" y="374.4" width="2.5" height="5.6" fill="#2E6BD6" opacity="0.5"/>
<line x1="174.9" y1="173.7" x2="174.9" y2="194.7" stroke="#2E6BD6" stroke-width="1"/>
<rect x="173.7" y="181.2" width="2.5" height="4.6" fill="#2E6BD6"/>
<rect x="173.7" y="373.9" width="2.5" height="6.1" fill="#2E6BD6" opacity="0.5"/>
<line x1="178.7" y1="188.8" x2="178.7" y2="202.2" stroke="#2E6BD6" stroke-width="1"/>
<rect x="177.5" y="193.3" width="2.5" height="6.7" fill="#2E6BD6"/>
<rect x="177.5" y="376.7" width="2.5" height="3.3" fill="#2E6BD6" opacity="0.5"/>
<line x1="182.4" y1="198.4" x2="182.4" y2="207.8" stroke="#2E6BD6" stroke-width="1"/>
<rect x="181.2" y="200.0" width="2.5" height="4.6" fill="#2E6BD6"/>
<rect x="181.2" y="377.8" width="2.5" height="2.2" fill="#2E6BD6" opacity="0.5"/>
<line x1="186.2" y1="193.9" x2="186.2" y2="215.9" stroke="#2E6BD6" stroke-width="1"/>
<rect x="184.9" y="202.2" width="2.5" height="12.4" fill="#2E6BD6"/>
<rect x="184.9" y="377.0" width="2.5" height="3.0" fill="#2E6BD6" opacity="0.5"/>
<line x1="189.9" y1="183.1" x2="189.9" y2="216.7" stroke="#C6403F" stroke-width="1"/>
<rect x="188.7" y="201.4" width="2.5" height="11.0" fill="#C6403F"/>
<rect x="188.7" y="360.0" width="2.5" height="20.0" fill="#C6403F" opacity="0.5"/>
<line x1="193.7" y1="186.6" x2="193.7" y2="202.7" stroke="#C6403F" stroke-width="1"/>
<rect x="192.4" y="196.3" width="2.5" height="0.9" fill="#C6403F"/>
<rect x="192.4" y="370.2" width="2.5" height="9.8" fill="#C6403F" opacity="0.5"/>
<line x1="197.4" y1="177.2" x2="197.4" y2="198.7" stroke="#C6403F" stroke-width="1"/>
<rect x="196.2" y="188.8" width="2.5" height="7.5" fill="#C6403F"/>
<rect x="196.2" y="372.4" width="2.5" height="7.6" fill="#C6403F" opacity="0.5"/>
<line x1="201.2" y1="125.9" x2="201.2" y2="190.4" stroke="#C6403F" stroke-width="1"/>
<rect x="199.9" y="153.3" width="2.5" height="30.3" fill="#C6403F"/>
<rect x="199.9" y="318.0" width="2.5" height="62.0" fill="#C6403F" opacity="0.5"/>
<line x1="204.9" y1="138.3" x2="204.9" y2="156.3" stroke="#2E6BD6" stroke-width="1"/>
<rect x="203.7" y="145.3" width="2.5" height="1.3" fill="#2E6BD6"/>
<rect x="203.7" y="357.5" width="2.5" height="22.5" fill="#2E6BD6" opacity="0.5"/>
<line x1="208.7" y1="138.8" x2="208.7" y2="154.9" stroke="#2E6BD6" stroke-width="1"/>
<rect x="207.4" y="142.6" width="2.5" height="11.0" fill="#2E6BD6"/>
<rect x="207.4" y="373.0" width="2.5" height="7.0" fill="#2E6BD6" opacity="0.5"/>
<line x1="212.4" y1="149.0" x2="212.4" y2="166.2" stroke="#2E6BD6" stroke-width="1"/>
<rect x="211.2" y="149.8" width="2.5" height="16.4" fill="#2E6BD6"/>
<rect x="211.2" y="373.8" width="2.5" height="6.2" fill="#2E6BD6" opacity="0.5"/>
<line x1="216.1" y1="161.9" x2="216.1" y2="174.8" stroke="#2E6BD6" stroke-width="1"/>
<rect x="214.9" y="165.7" width="2.5" height="8.1" fill="#2E6BD6"/>
<rect x="214.9" y="375.6" width="2.5" height="4.4" fill="#2E6BD6" opacity="0.5"/>
<line x1="219.9" y1="151.7" x2="219.9" y2="170.2" stroke="#C6403F" stroke-width="1"/>
<rect x="218.7" y="164.9" width="2.5" height="3.0" fill="#C6403F"/>
<rect x="218.7" y="371.6" width="2.5" height="8.4" fill="#C6403F" opacity="0.5"/>
<line x1="223.6" y1="156.0" x2="223.6" y2="175.6" stroke="#2E6BD6" stroke-width="1"/>
<rect x="222.4" y="164.9" width="2.5" height="5.1" fill="#2E6BD6"/>
<rect x="222.4" y="375.0" width="2.5" height="5.0" fill="#2E6BD6" opacity="0.5"/>
<line x1="227.4" y1="169.4" x2="227.4" y2="180.2" stroke="#2E6BD6" stroke-width="1"/>
<rect x="226.2" y="170.0" width="2.5" height="10.2" fill="#2E6BD6"/>
<rect x="226.2" y="377.9" width="2.5" height="2.1" fill="#2E6BD6" opacity="0.5"/>
<line x1="231.1" y1="146.9" x2="231.1" y2="175.3" stroke="#C6403F" stroke-width="1"/>
<rect x="229.9" y="163.0" width="2.5" height="11.3" fill="#C6403F"/>
<rect x="229.9" y="362.9" width="2.5" height="17.1" fill="#C6403F" opacity="0.5"/>
<line x1="234.9" y1="157.3" x2="234.9" y2="168.3" stroke="#2E6BD6" stroke-width="1"/>
<rect x="233.6" y="161.1" width="2.5" height="3.0" fill="#2E6BD6"/>
<rect x="233.6" y="374.8" width="2.5" height="5.2" fill="#2E6BD6" opacity="0.5"/>
<line x1="238.6" y1="166.2" x2="238.6" y2="178.6" stroke="#2E6BD6" stroke-width="1"/>
<rect x="237.4" y="168.3" width="2.5" height="8.3" fill="#2E6BD6"/>
<rect x="237.4" y="377.5" width="2.5" height="2.5" fill="#2E6BD6" opacity="0.5"/>
<line x1="242.4" y1="178.0" x2="242.4" y2="194.4" stroke="#2E6BD6" stroke-width="1"/>
<rect x="241.1" y="179.9" width="2.5" height="14.5" fill="#2E6BD6"/>
<rect x="241.1" y="377.5" width="2.5" height="2.5" fill="#2E6BD6" opacity="0.5"/>
<line x1="246.1" y1="159.0" x2="246.1" y2="198.4" stroke="#C6403F" stroke-width="1"/>
<rect x="244.9" y="188.8" width="2.5" height="3.2" fill="#C6403F"/>
<rect x="244.9" y="363.3" width="2.5" height="16.7" fill="#C6403F" opacity="0.5"/>
<line x1="249.9" y1="184.2" x2="249.9" y2="197.4" stroke="#C6403F" stroke-width="1"/>
<rect x="248.6" y="186.1" width="2.5" height="8.9" fill="#C6403F"/>
<rect x="248.6" y="377.5" width="2.5" height="2.5" fill="#C6403F" opacity="0.5"/>
<line x1="253.6" y1="178.3" x2="253.6" y2="188.0" stroke="#2E6BD6" stroke-width="1"/>
<rect x="252.4" y="181.2" width="2.5" height="6.2" fill="#2E6BD6"/>
<rect x="252.4" y="377.9" width="2.5" height="2.1" fill="#2E6BD6" opacity="0.5"/>
<line x1="257.4" y1="179.9" x2="257.4" y2="187.1" stroke="#C6403F" stroke-width="1"/>
<rect x="256.1" y="185.5" width="2.5" height="0.9" fill="#C6403F"/>
<rect x="256.1" y="378.6" width="2.5" height="1.4" fill="#C6403F" opacity="0.5"/>
<line x1="261.1" y1="143.6" x2="261.1" y2="180.2" stroke="#C6403F" stroke-width="1"/>
<rect x="259.9" y="166.7" width="2.5" height="11.8" fill="#C6403F"/>
<rect x="259.9" y="333.3" width="2.5" height="46.7" fill="#C6403F" opacity="0.5"/>
<line x1="264.8" y1="156.5" x2="264.8" y2="170.5" stroke="#2E6BD6" stroke-width="1"/>
<rect x="263.6" y="161.4" width="2.5" height="9.1" fill="#2E6BD6"/>
<rect x="263.6" y="372.2" width="2.5" height="7.8" fill="#2E6BD6" opacity="0.5"/>
<line x1="268.6" y1="165.9" x2="268.6" y2="179.9" stroke="#2E6BD6" stroke-width="1"/>
<rect x="267.4" y="170.5" width="2.5" height="9.4" fill="#2E6BD6"/>
<rect x="267.4" y="377.0" width="2.5" height="3.0" fill="#2E6BD6" opacity="0.5"/>
<line x1="272.3" y1="161.1" x2="272.3" y2="189.3" stroke="#C6403F" stroke-width="1"/>
<rect x="271.1" y="170.5" width="2.5" height="7.5" fill="#C6403F"/>
<rect x="271.1" y="373.6" width="2.5" height="6.4" fill="#C6403F" opacity="0.5"/>
<line x1="276.1" y1="166.2" x2="276.1" y2="175.6" stroke="#C6403F" stroke-width="1"/>
<rect x="274.8" y="170.8" width="2.5" height="4.8" fill="#C6403F"/>
<rect x="274.8" y="376.8" width="2.5" height="3.2" fill="#C6403F" opacity="0.5"/>
<line x1="279.8" y1="168.3" x2="279.8" y2="175.9" stroke="#2E6BD6" stroke-width="1"/>
<rect x="278.6" y="170.2" width="2.5" height="1.3" fill="#2E6BD6"/>
<rect x="278.6" y="378.3" width="2.5" height="1.7" fill="#2E6BD6" opacity="0.5"/>
<line x1="283.6" y1="166.5" x2="283.6" y2="180.2" stroke="#2E6BD6" stroke-width="1"/>
<rect x="282.3" y="168.1" width="2.5" height="11.5" fill="#2E6BD6"/>
<rect x="282.3" y="377.9" width="2.5" height="2.1" fill="#2E6BD6" opacity="0.5"/>
<line x1="287.3" y1="175.3" x2="287.3" y2="186.1" stroke="#2E6BD6" stroke-width="1"/>
<rect x="286.1" y="179.6" width="2.5" height="5.4" fill="#2E6BD6"/>
<rect x="286.1" y="378.3" width="2.5" height="1.7" fill="#2E6BD6" opacity="0.5"/>
<line x1="291.1" y1="171.8" x2="291.1" y2="188.8" stroke="#2E6BD6" stroke-width="1"/>
<rect x="289.8" y="183.9" width="2.5" height="4.6" fill="#2E6BD6"/>
<rect x="289.8" y="377.7" width="2.5" height="2.3" fill="#2E6BD6" opacity="0.5"/>
<line x1="294.8" y1="175.1" x2="294.8" y2="187.7" stroke="#2E6BD6" stroke-width="1"/>
<rect x="293.6" y="185.8" width="2.5" height="1.9" fill="#2E6BD6"/>
<rect x="293.6" y="377.5" width="2.5" height="2.5" fill="#2E6BD6" opacity="0.5"/>
<line x1="298.6" y1="179.1" x2="298.6" y2="187.4" stroke="#C6403F" stroke-width="1"/>
<rect x="297.3" y="183.1" width="2.5" height="4.3" fill="#C6403F"/>
<rect x="297.3" y="378.6" width="2.5" height="1.4" fill="#C6403F" opacity="0.5"/>
<line x1="302.3" y1="178.0" x2="302.3" y2="187.1" stroke="#2E6BD6" stroke-width="1"/>
<rect x="301.1" y="181.0" width="2.5" height="3.8" fill="#2E6BD6"/>
<rect x="301.1" y="378.5" width="2.5" height="1.5" fill="#2E6BD6" opacity="0.5"/>
<line x1="306.0" y1="181.5" x2="306.0" y2="190.4" stroke="#2E6BD6" stroke-width="1"/>
<rect x="304.8" y="183.9" width="2.5" height="6.2" fill="#2E6BD6"/>
<rect x="304.8" y="378.7" width="2.5" height="1.3" fill="#2E6BD6" opacity="0.5"/>
<line x1="309.8" y1="188.8" x2="309.8" y2="204.3" stroke="#2E6BD6" stroke-width="1"/>
<rect x="308.6" y="191.4" width="2.5" height="11.5" fill="#2E6BD6"/>
<rect x="308.6" y="377.5" width="2.5" height="2.5" fill="#2E6BD6" opacity="0.5"/>
<line x1="313.5" y1="149.6" x2="313.5" y2="206.5" stroke="#C6403F" stroke-width="1"/>
<rect x="312.3" y="178.0" width="2.5" height="28.5" fill="#C6403F"/>
<rect x="312.3" y="350.5" width="2.5" height="29.5" fill="#C6403F" opacity="0.5"/>
<line x1="317.3" y1="169.7" x2="317.3" y2="191.7" stroke="#2E6BD6" stroke-width="1"/>
<rect x="316.1" y="176.4" width="2.5" height="14.0" fill="#2E6BD6"/>
<rect x="316.1" y="374.9" width="2.5" height="5.1" fill="#2E6BD6" opacity="0.5"/>
<line x1="321.0" y1="178.3" x2="321.0" y2="188.8" stroke="#C6403F" stroke-width="1"/>
<rect x="319.8" y="182.0" width="2.5" height="4.6" fill="#C6403F"/>
<rect x="319.8" y="377.1" width="2.5" height="2.9" fill="#C6403F" opacity="0.5"/>
<line x1="324.8" y1="112.5" x2="324.8" y2="169.7" stroke="#C6403F" stroke-width="1"/>
<rect x="323.5" y="112.5" width="2.5" height="39.5" fill="#C6403F"/>
<rect x="323.5" y="329.4" width="2.5" height="50.6" fill="#C6403F" opacity="0.5"/>
<line x1="328.5" y1="82.4" x2="328.5" y2="126.5" stroke="#C6403F" stroke-width="1"/>
<rect x="327.3" y="117.9" width="2.5" height="3.2" fill="#C6403F"/>
<rect x="327.3" y="340.1" width="2.5" height="39.9" fill="#C6403F" opacity="0.5"/>
<line x1="332.3" y1="103.4" x2="332.3" y2="144.2" stroke="#2E6BD6" stroke-width="1"/>
<rect x="331.0" y="112.5" width="2.5" height="27.4" fill="#2E6BD6"/>
<rect x="331.0" y="371.4" width="2.5" height="8.6" fill="#2E6BD6" opacity="0.5"/>
<line x1="336.0" y1="114.6" x2="336.0" y2="156.5" stroke="#2E6BD6" stroke-width="1"/>
<rect x="334.8" y="137.7" width="2.5" height="18.8" fill="#2E6BD6"/>
<rect x="334.8" y="368.4" width="2.5" height="11.6" fill="#2E6BD6" opacity="0.5"/>
<line x1="339.8" y1="147.7" x2="339.8" y2="158.7" stroke="#C6403F" stroke-width="1"/>
<rect x="338.5" y="150.1" width="2.5" height="4.6" fill="#C6403F"/>
<rect x="338.5" y="377.2" width="2.5" height="2.8" fill="#C6403F" opacity="0.5"/>
<line x1="343.5" y1="144.7" x2="343.5" y2="161.9" stroke="#2E6BD6" stroke-width="1"/>
<rect x="342.3" y="149.8" width="2.5" height="11.0" fill="#2E6BD6"/>
<rect x="342.3" y="376.7" width="2.5" height="3.3" fill="#2E6BD6" opacity="0.5"/>
<line x1="347.3" y1="148.5" x2="347.3" y2="160.3" stroke="#C6403F" stroke-width="1"/>
<rect x="346.0" y="151.2" width="2.5" height="8.1" fill="#C6403F"/>
<rect x="346.0" y="376.9" width="2.5" height="3.1" fill="#C6403F" opacity="0.5"/>
<line x1="351.0" y1="123.2" x2="351.0" y2="149.6" stroke="#2E6BD6" stroke-width="1"/>
<rect x="349.8" y="132.4" width="2.5" height="15.6" fill="#2E6BD6"/>
<rect x="349.8" y="373.8" width="2.5" height="6.2" fill="#2E6BD6" opacity="0.5"/>
<line x1="354.7" y1="137.2" x2="354.7" y2="159.2" stroke="#2E6BD6" stroke-width="1"/>
<rect x="353.5" y="142.0" width="2.5" height="15.6" fill="#2E6BD6"/>
<rect x="353.5" y="377.3" width="2.5" height="2.7" fill="#2E6BD6" opacity="0.5"/>
<line x1="358.5" y1="153.3" x2="358.5" y2="173.2" stroke="#2E6BD6" stroke-width="1"/>
<rect x="357.3" y="161.1" width="2.5" height="11.3" fill="#2E6BD6"/>
<rect x="357.3" y="378.2" width="2.5" height="1.8" fill="#2E6BD6" opacity="0.5"/>
<line x1="362.2" y1="159.8" x2="362.2" y2="170.8" stroke="#C6403F" stroke-width="1"/>
<rect x="361.0" y="161.4" width="2.5" height="7.5" fill="#C6403F"/>
<rect x="361.0" y="378.4" width="2.5" height="1.6" fill="#C6403F" opacity="0.5"/>
<line x1="366.0" y1="155.2" x2="366.0" y2="170.8" stroke="#2E6BD6" stroke-width="1"/>
<rect x="364.7" y="158.7" width="2.5" height="5.4" fill="#2E6BD6"/>
<rect x="364.7" y="378.1" width="2.5" height="1.9" fill="#2E6BD6" opacity="0.5"/>
<line x1="369.7" y1="166.2" x2="369.7" y2="178.3" stroke="#2E6BD6" stroke-width="1"/>
<rect x="368.5" y="167.5" width="2.5" height="10.5" fill="#2E6BD6"/>
<rect x="368.5" y="378.5" width="2.5" height="1.5" fill="#2E6BD6" opacity="0.5"/>
<line x1="373.5" y1="181.2" x2="373.5" y2="194.7" stroke="#2E6BD6" stroke-width="1"/>
<rect x="372.2" y="183.9" width="2.5" height="0.9" fill="#2E6BD6"/>
<rect x="372.2" y="378.9" width="2.5" height="1.1" fill="#2E6BD6" opacity="0.5"/>
<line x1="377.2" y1="132.4" x2="377.2" y2="172.9" stroke="#C6403F" stroke-width="1"/>
<rect x="376.0" y="161.4" width="2.5" height="10.7" fill="#C6403F"/>
<rect x="376.0" y="362.3" width="2.5" height="17.7" fill="#C6403F" opacity="0.5"/>
<line x1="381.0" y1="149.0" x2="381.0" y2="164.6" stroke="#2E6BD6" stroke-width="1"/>
<rect x="379.7" y="154.9" width="2.5" height="6.2" fill="#2E6BD6"/>
<rect x="379.7" y="375.5" width="2.5" height="4.5" fill="#2E6BD6" opacity="0.5"/>
<line x1="384.7" y1="147.9" x2="384.7" y2="166.5" stroke="#C6403F" stroke-width="1"/>
<rect x="383.5" y="151.2" width="2.5" height="10.2" fill="#C6403F"/>
<rect x="383.5" y="376.5" width="2.5" height="3.5" fill="#C6403F" opacity="0.5"/>
<line x1="388.5" y1="135.6" x2="388.5" y2="153.0" stroke="#2E6BD6" stroke-width="1"/>
<rect x="387.2" y="141.0" width="2.5" height="9.9" fill="#2E6BD6"/>
<rect x="387.2" y="376.2" width="2.5" height="3.8" fill="#2E6BD6" opacity="0.5"/>
<line x1="392.2" y1="135.6" x2="392.2" y2="157.1" stroke="#C6403F" stroke-width="1"/>
<rect x="391.0" y="151.7" width="2.5" height="2.7" fill="#C6403F"/>
<rect x="391.0" y="375.2" width="2.5" height="4.8" fill="#C6403F" opacity="0.5"/>
<line x1="396.0" y1="144.2" x2="396.0" y2="160.0" stroke="#2E6BD6" stroke-width="1"/>
<rect x="394.7" y="146.3" width="2.5" height="10.7" fill="#2E6BD6"/>
<rect x="394.7" y="377.3" width="2.5" height="2.7" fill="#2E6BD6" opacity="0.5"/>
<line x1="399.7" y1="153.6" x2="399.7" y2="166.7" stroke="#2E6BD6" stroke-width="1"/>
<rect x="398.5" y="153.6" width="2.5" height="12.1" fill="#2E6BD6"/>
<rect x="398.5" y="378.4" width="2.5" height="1.6" fill="#2E6BD6" opacity="0.5"/>
<line x1="403.4" y1="163.0" x2="403.4" y2="172.1" stroke="#2E6BD6" stroke-width="1"/>
<rect x="402.2" y="164.6" width="2.5" height="7.3" fill="#2E6BD6"/>
<rect x="402.2" y="378.5" width="2.5" height="1.5" fill="#2E6BD6" opacity="0.5"/>
<line x1="407.2" y1="163.0" x2="407.2" y2="172.4" stroke="#C6403F" stroke-width="1"/>
<rect x="406.0" y="163.0" width="2.5" height="8.6" fill="#C6403F"/>
<rect x="406.0" y="378.8" width="2.5" height="1.2" fill="#C6403F" opacity="0.5"/>
<line x1="410.9" y1="130.8" x2="410.9" y2="161.9" stroke="#2E6BD6" stroke-width="1"/>
<rect x="409.7" y="147.7" width="2.5" height="12.9" fill="#2E6BD6"/>
<rect x="409.7" y="369.7" width="2.5" height="10.3" fill="#2E6BD6" opacity="0.5"/>
<line x1="414.7" y1="160.8" x2="414.7" y2="170.2" stroke="#2E6BD6" stroke-width="1"/>
<rect x="413.4" y="161.1" width="2.5" height="9.1" fill="#2E6BD6"/>
<rect x="413.4" y="378.1" width="2.5" height="1.9" fill="#2E6BD6" opacity="0.5"/>
<line x1="418.4" y1="147.1" x2="418.4" y2="174.8" stroke="#C6403F" stroke-width="1"/>
<rect x="417.2" y="162.4" width="2.5" height="7.8" fill="#C6403F"/>
<rect x="417.2" y="375.1" width="2.5" height="4.9" fill="#C6403F" opacity="0.5"/>
<line x1="422.2" y1="164.1" x2="422.2" y2="183.7" stroke="#2E6BD6" stroke-width="1"/>
<rect x="420.9" y="171.8" width="2.5" height="11.8" fill="#2E6BD6"/>
<rect x="420.9" y="378.3" width="2.5" height="1.7" fill="#2E6BD6" opacity="0.5"/>
<line x1="425.9" y1="189.3" x2="425.9" y2="230.4" stroke="#2E6BD6" stroke-width="1"/>
<rect x="424.7" y="203.0" width="2.5" height="27.4" fill="#2E6BD6"/>
<rect x="424.7" y="377.6" width="2.5" height="2.4" fill="#2E6BD6" opacity="0.5"/>
<line x1="429.7" y1="196.3" x2="429.7" y2="219.1" stroke="#C6403F" stroke-width="1"/>
<rect x="428.4" y="204.6" width="2.5" height="14.5" fill="#C6403F"/>
<rect x="428.4" y="378.5" width="2.5" height="1.5" fill="#C6403F" opacity="0.5"/>
<line x1="433.4" y1="195.2" x2="433.4" y2="215.6" stroke="#C6403F" stroke-width="1"/>
<rect x="432.2" y="204.1" width="2.5" height="0.9" fill="#C6403F"/>
<rect x="432.2" y="379.2" width="2.5" height="0.8" fill="#C6403F" opacity="0.5"/>
<line x1="437.2" y1="204.3" x2="437.2" y2="225.8" stroke="#2E6BD6" stroke-width="1"/>
<rect x="435.9" y="217.0" width="2.5" height="3.8" fill="#2E6BD6"/>
<rect x="435.9" y="379.1" width="2.5" height="0.9" fill="#2E6BD6" opacity="0.5"/>
<line x1="440.9" y1="204.6" x2="440.9" y2="212.7" stroke="#C6403F" stroke-width="1"/>
<rect x="439.7" y="204.6" width="2.5" height="5.1" fill="#C6403F"/>
<rect x="439.7" y="379.3" width="2.5" height="0.7" fill="#C6403F" opacity="0.5"/>
<line x1="444.6" y1="194.9" x2="444.6" y2="208.1" stroke="#2E6BD6" stroke-width="1"/>
<rect x="443.4" y="199.0" width="2.5" height="3.5" fill="#2E6BD6"/>
<rect x="443.4" y="379.1" width="2.5" height="0.9" fill="#2E6BD6" opacity="0.5"/>
<line x1="448.4" y1="175.3" x2="448.4" y2="205.4" stroke="#C6403F" stroke-width="1"/>
<rect x="447.2" y="199.0" width="2.5" height="3.8" fill="#C6403F"/>
<rect x="447.2" y="375.5" width="2.5" height="4.5" fill="#C6403F" opacity="0.5"/>
<line x1="452.1" y1="196.3" x2="452.1" y2="207.0" stroke="#C6403F" stroke-width="1"/>
<rect x="450.9" y="201.4" width="2.5" height="3.5" fill="#C6403F"/>
<rect x="450.9" y="379.3" width="2.5" height="0.7" fill="#C6403F" opacity="0.5"/>
<line x1="455.9" y1="199.0" x2="455.9" y2="208.4" stroke="#2E6BD6" stroke-width="1"/>
<rect x="454.6" y="199.0" width="2.5" height="9.4" fill="#2E6BD6"/>
<rect x="454.6" y="379.5" width="2.5" height="0.5" fill="#2E6BD6" opacity="0.5"/>
<line x1="459.6" y1="199.5" x2="459.6" y2="204.9" stroke="#C6403F" stroke-width="1"/>
<rect x="458.4" y="204.1" width="2.5" height="0.9" fill="#C6403F"/>
<rect x="458.4" y="379.5" width="2.5" height="0.5" fill="#C6403F" opacity="0.5"/>
<line x1="463.4" y1="196.3" x2="463.4" y2="203.0" stroke="#2E6BD6" stroke-width="1"/>
<rect x="462.1" y="197.1" width="2.5" height="1.1" fill="#2E6BD6"/>
<rect x="462.1" y="379.4" width="2.5" height="0.6" fill="#2E6BD6" opacity="0.5"/>
<line x1="467.1" y1="200.6" x2="467.1" y2="205.7" stroke="#2E6BD6" stroke-width="1"/>
<rect x="465.9" y="202.7" width="2.5" height="3.0" fill="#2E6BD6"/>
<rect x="465.9" y="379.7" width="2.5" height="0.3" fill="#2E6BD6" opacity="0.5"/>
<line x1="470.9" y1="180.4" x2="470.9" y2="204.6" stroke="#C6403F" stroke-width="1"/>
<rect x="469.6" y="201.9" width="2.5" height="2.7" fill="#C6403F"/>
<rect x="469.6" y="375.5" width="2.5" height="4.5" fill="#C6403F" opacity="0.5"/>
<line x1="474.6" y1="205.1" x2="474.6" y2="217.2" stroke="#2E6BD6" stroke-width="1"/>
<rect x="473.4" y="205.7" width="2.5" height="11.5" fill="#2E6BD6"/>
<rect x="473.4" y="379.2" width="2.5" height="0.8" fill="#2E6BD6" opacity="0.5"/>
<line x1="478.4" y1="208.9" x2="478.4" y2="218.6" stroke="#C6403F" stroke-width="1"/>
<rect x="477.1" y="210.8" width="2.5" height="0.9" fill="#C6403F"/>
<rect x="477.1" y="379.5" width="2.5" height="0.5" fill="#C6403F" opacity="0.5"/>
<line x1="482.1" y1="207.0" x2="482.1" y2="214.3" stroke="#2E6BD6" stroke-width="1"/>
<rect x="480.9" y="210.2" width="2.5" height="1.1" fill="#2E6BD6"/>
<rect x="480.9" y="379.6" width="2.5" height="0.4" fill="#2E6BD6" opacity="0.5"/>
<line x1="485.9" y1="209.7" x2="485.9" y2="218.3" stroke="#2E6BD6" stroke-width="1"/>
<rect x="484.6" y="209.7" width="2.5" height="8.6" fill="#2E6BD6"/>
<rect x="484.6" y="379.6" width="2.5" height="0.4" fill="#2E6BD6" opacity="0.5"/>
<line x1="489.6" y1="216.2" x2="489.6" y2="226.9" stroke="#C6403F" stroke-width="1"/>
<rect x="488.4" y="219.9" width="2.5" height="2.4" fill="#C6403F"/>
<rect x="488.4" y="379.6" width="2.5" height="0.4" fill="#C6403F" opacity="0.5"/>
<line x1="493.3" y1="222.6" x2="493.3" y2="229.3" stroke="#C6403F" stroke-width="1"/>
<rect x="492.1" y="227.4" width="2.5" height="1.6" fill="#C6403F"/>
<rect x="492.1" y="379.7" width="2.5" height="0.3" fill="#C6403F" opacity="0.5"/>
<line x1="497.1" y1="225.3" x2="497.1" y2="235.8" stroke="#2E6BD6" stroke-width="1"/>
<rect x="495.9" y="228.8" width="2.5" height="5.9" fill="#2E6BD6"/>
<rect x="495.9" y="379.6" width="2.5" height="0.4" fill="#2E6BD6" opacity="0.5"/>
<line x1="500.8" y1="202.5" x2="500.8" y2="231.2" stroke="#C6403F" stroke-width="1"/>
<rect x="499.6" y="217.5" width="2.5" height="13.7" fill="#C6403F"/>
<rect x="499.6" y="375.8" width="2.5" height="4.2" fill="#C6403F" opacity="0.5"/>
<line x1="504.6" y1="209.4" x2="504.6" y2="230.1" stroke="#2E6BD6" stroke-width="1"/>
<rect x="503.3" y="212.9" width="2.5" height="15.8" fill="#2E6BD6"/>
<rect x="503.3" y="379.0" width="2.5" height="1.0" fill="#2E6BD6" opacity="0.5"/>
<line x1="508.3" y1="220.2" x2="508.3" y2="225.8" stroke="#2E6BD6" stroke-width="1"/>
<rect x="507.1" y="222.6" width="2.5" height="0.9" fill="#2E6BD6"/>
<rect x="507.1" y="379.7" width="2.5" height="0.3" fill="#2E6BD6" opacity="0.5"/>
<line x1="512.1" y1="219.9" x2="512.1" y2="228.8" stroke="#2E6BD6" stroke-width="1"/>
<rect x="510.8" y="223.1" width="2.5" height="3.2" fill="#2E6BD6"/>
<rect x="510.8" y="379.8" width="2.5" height="0.2" fill="#2E6BD6" opacity="0.5"/>
<line x1="515.8" y1="221.8" x2="515.8" y2="233.1" stroke="#2E6BD6" stroke-width="1"/>
<rect x="514.6" y="225.6" width="2.5" height="2.4" fill="#2E6BD6"/>
<rect x="514.6" y="379.6" width="2.5" height="0.4" fill="#2E6BD6" opacity="0.5"/>
<line x1="519.6" y1="213.5" x2="519.6" y2="223.1" stroke="#C6403F" stroke-width="1"/>
<rect x="518.3" y="214.5" width="2.5" height="8.6" fill="#C6403F"/>
<rect x="518.3" y="379.3" width="2.5" height="0.7" fill="#C6403F" opacity="0.5"/>
<line x1="523.3" y1="214.5" x2="523.3" y2="231.2" stroke="#2E6BD6" stroke-width="1"/>
<rect x="522.1" y="214.5" width="2.5" height="6.7" fill="#2E6BD6"/>
<rect x="522.1" y="379.7" width="2.5" height="0.3" fill="#2E6BD6" opacity="0.5"/>
<line x1="527.1" y1="217.0" x2="527.1" y2="221.8" stroke="#C6403F" stroke-width="1"/>
<rect x="525.8" y="220.7" width="2.5" height="0.9" fill="#C6403F"/>
<rect x="525.8" y="379.7" width="2.5" height="0.3" fill="#C6403F" opacity="0.5"/>
<line x1="530.8" y1="218.8" x2="530.8" y2="225.0" stroke="#C6403F" stroke-width="1"/>
<rect x="529.6" y="220.4" width="2.5" height="0.9" fill="#C6403F"/>
<rect x="529.6" y="379.8" width="2.5" height="0.2" fill="#C6403F" opacity="0.5"/>
<line x1="534.5" y1="212.1" x2="534.5" y2="217.0" stroke="#C6403F" stroke-width="1"/>
<rect x="533.3" y="214.5" width="2.5" height="2.1" fill="#C6403F"/>
<rect x="533.3" y="379.6" width="2.5" height="0.4" fill="#C6403F" opacity="0.5"/>
<line x1="538.3" y1="205.4" x2="538.3" y2="212.9" stroke="#C6403F" stroke-width="1"/>
<rect x="537.1" y="210.8" width="2.5" height="0.9" fill="#C6403F"/>
<rect x="537.1" y="379.2" width="2.5" height="0.8" fill="#C6403F" opacity="0.5"/>
<line x1="542.0" y1="161.4" x2="542.0" y2="209.2" stroke="#C6403F" stroke-width="1"/>
<rect x="540.8" y="196.3" width="2.5" height="8.3" fill="#C6403F"/>
<rect x="540.8" y="365.7" width="2.5" height="14.3" fill="#C6403F" opacity="0.5"/>
<line x1="545.8" y1="184.5" x2="545.8" y2="203.8" stroke="#C6403F" stroke-width="1"/>
<rect x="544.5" y="192.0" width="2.5" height="4.3" fill="#C6403F"/>
<rect x="544.5" y="376.9" width="2.5" height="3.1" fill="#C6403F" opacity="0.5"/>
<line x1="549.5" y1="189.0" x2="549.5" y2="197.6" stroke="#2E6BD6" stroke-width="1"/>
<rect x="548.3" y="190.9" width="2.5" height="5.4" fill="#2E6BD6"/>
<rect x="548.3" y="379.1" width="2.5" height="0.9" fill="#2E6BD6" opacity="0.5"/>
<line x1="553.3" y1="186.6" x2="553.3" y2="198.7" stroke="#2E6BD6" stroke-width="1"/>
<rect x="552.0" y="195.2" width="2.5" height="0.9" fill="#2E6BD6"/>
<rect x="552.0" y="379.0" width="2.5" height="1.0" fill="#2E6BD6" opacity="0.5"/>
<line x1="557.0" y1="179.6" x2="557.0" y2="202.5" stroke="#C6403F" stroke-width="1"/>
<rect x="555.8" y="194.7" width="2.5" height="2.7" fill="#C6403F"/>
<rect x="555.8" y="377.8" width="2.5" height="2.2" fill="#C6403F" opacity="0.5"/>
<line x1="560.8" y1="190.4" x2="560.8" y2="199.5" stroke="#2E6BD6" stroke-width="1"/>
<rect x="559.5" y="193.1" width="2.5" height="3.8" fill="#2E6BD6"/>
<rect x="559.5" y="379.3" width="2.5" height="0.7" fill="#2E6BD6" opacity="0.5"/>
<line x1="564.5" y1="173.2" x2="564.5" y2="194.1" stroke="#C6403F" stroke-width="1"/>
<rect x="563.3" y="189.3" width="2.5" height="1.1" fill="#C6403F"/>
<rect x="563.3" y="375.5" width="2.5" height="4.5" fill="#C6403F" opacity="0.5"/>
<line x1="568.3" y1="184.7" x2="568.3" y2="191.2" stroke="#2E6BD6" stroke-width="1"/>
<rect x="567.0" y="186.1" width="2.5" height="4.8" fill="#2E6BD6"/>
<rect x="567.0" y="379.1" width="2.5" height="0.9" fill="#2E6BD6" opacity="0.5"/>
<line x1="572.0" y1="184.5" x2="572.0" y2="194.7" stroke="#2E6BD6" stroke-width="1"/>
<rect x="570.8" y="190.9" width="2.5" height="3.0" fill="#2E6BD6"/>
<rect x="570.8" y="379.1" width="2.5" height="0.9" fill="#2E6BD6" opacity="0.5"/>
<line x1="575.8" y1="193.6" x2="575.8" y2="197.4" stroke="#2E6BD6" stroke-width="1"/>
<rect x="574.5" y="193.9" width="2.5" height="3.0" fill="#2E6BD6"/>
<rect x="574.5" y="379.6" width="2.5" height="0.4" fill="#2E6BD6" opacity="0.5"/>
<line x1="579.5" y1="189.6" x2="579.5" y2="199.5" stroke="#2E6BD6" stroke-width="1"/>
<rect x="578.3" y="195.2" width="2.5" height="1.9" fill="#2E6BD6"/>
<rect x="578.3" y="379.3" width="2.5" height="0.7" fill="#2E6BD6" opacity="0.5"/>
<line x1="583.2" y1="193.6" x2="583.2" y2="201.7" stroke="#2E6BD6" stroke-width="1"/>
<rect x="582.0" y="195.5" width="2.5" height="5.4" fill="#2E6BD6"/>
<rect x="582.0" y="379.4" width="2.5" height="0.6" fill="#2E6BD6" opacity="0.5"/>
<line x1="587.0" y1="200.0" x2="587.0" y2="209.7" stroke="#2E6BD6" stroke-width="1"/>
<rect x="585.8" y="200.8" width="2.5" height="7.8" fill="#2E6BD6"/>
<rect x="585.8" y="379.2" width="2.5" height="0.8" fill="#2E6BD6" opacity="0.5"/>
<line x1="590.7" y1="206.5" x2="590.7" y2="217.0" stroke="#2E6BD6" stroke-width="1"/>
<rect x="589.5" y="208.1" width="2.5" height="8.6" fill="#2E6BD6"/>
<rect x="589.5" y="379.4" width="2.5" height="0.6" fill="#2E6BD6" opacity="0.5"/>
<line x1="594.5" y1="206.8" x2="594.5" y2="217.2" stroke="#C6403F" stroke-width="1"/>
<rect x="593.2" y="213.5" width="2.5" height="0.9" fill="#C6403F"/>
<rect x="593.2" y="379.6" width="2.5" height="0.4" fill="#C6403F" opacity="0.5"/>
<line x1="598.2" y1="204.9" x2="598.2" y2="219.9" stroke="#2E6BD6" stroke-width="1"/>
<rect x="597.0" y="204.9" width="2.5" height="14.5" fill="#2E6BD6"/>
<rect x="597.0" y="379.6" width="2.5" height="0.4" fill="#2E6BD6" opacity="0.5"/>
<line x1="602.0" y1="215.1" x2="602.0" y2="229.6" stroke="#2E6BD6" stroke-width="1"/>
<rect x="600.7" y="217.8" width="2.5" height="7.0" fill="#2E6BD6"/>
<rect x="600.7" y="379.4" width="2.5" height="0.6" fill="#2E6BD6" opacity="0.5"/>
<line x1="605.7" y1="190.9" x2="605.7" y2="226.9" stroke="#C6403F" stroke-width="1"/>
<rect x="604.5" y="217.5" width="2.5" height="5.6" fill="#C6403F"/>
<rect x="604.5" y="374.3" width="2.5" height="5.7" fill="#C6403F" opacity="0.5"/>
<line x1="609.5" y1="213.5" x2="609.5" y2="223.7" stroke="#2E6BD6" stroke-width="1"/>
<rect x="608.2" y="214.5" width="2.5" height="7.8" fill="#2E6BD6"/>
<rect x="608.2" y="379.3" width="2.5" height="0.7" fill="#2E6BD6" opacity="0.5"/>
<line x1="613.2" y1="214.5" x2="613.2" y2="235.2" stroke="#2E6BD6" stroke-width="1"/>
<rect x="612.0" y="222.3" width="2.5" height="11.5" fill="#2E6BD6"/>
<rect x="612.0" y="379.2" width="2.5" height="0.8" fill="#2E6BD6" opacity="0.5"/>
<line x1="617.0" y1="232.8" x2="617.0" y2="247.8" stroke="#2E6BD6" stroke-width="1"/>
<rect x="615.7" y="234.4" width="2.5" height="4.8" fill="#2E6BD6"/>
<rect x="615.7" y="379.2" width="2.5" height="0.8" fill="#2E6BD6" opacity="0.5"/>
<line x1="620.7" y1="238.4" x2="620.7" y2="250.0" stroke="#2E6BD6" stroke-width="1"/>
<rect x="619.5" y="243.5" width="2.5" height="2.7" fill="#2E6BD6"/>
<rect x="619.5" y="379.6" width="2.5" height="0.4" fill="#2E6BD6" opacity="0.5"/>
<line x1="624.4" y1="246.5" x2="624.4" y2="255.4" stroke="#2E6BD6" stroke-width="1"/>
<rect x="623.2" y="247.8" width="2.5" height="1.9" fill="#2E6BD6"/>
<rect x="623.2" y="379.6" width="2.5" height="0.4" fill="#2E6BD6" opacity="0.5"/>
<line x1="628.2" y1="236.8" x2="628.2" y2="247.8" stroke="#C6403F" stroke-width="1"/>
<rect x="627.0" y="241.1" width="2.5" height="6.7" fill="#C6403F"/>
<rect x="627.0" y="379.5" width="2.5" height="0.5" fill="#C6403F" opacity="0.5"/>
<line x1="631.9" y1="234.7" x2="631.9" y2="241.1" stroke="#C6403F" stroke-width="1"/>
<rect x="630.7" y="237.4" width="2.5" height="3.8" fill="#C6403F"/>
<rect x="630.7" y="379.7" width="2.5" height="0.3" fill="#C6403F" opacity="0.5"/>
<line x1="635.7" y1="233.9" x2="635.7" y2="239.2" stroke="#2E6BD6" stroke-width="1"/>
<rect x="634.4" y="236.0" width="2.5" height="1.9" fill="#2E6BD6"/>
<rect x="634.4" y="379.6" width="2.5" height="0.4" fill="#2E6BD6" opacity="0.5"/>
<line x1="639.4" y1="237.9" x2="639.4" y2="250.8" stroke="#2E6BD6" stroke-width="1"/>
<rect x="638.2" y="240.3" width="2.5" height="9.9" fill="#2E6BD6"/>
<rect x="638.2" y="379.5" width="2.5" height="0.5" fill="#2E6BD6" opacity="0.5"/>
<line x1="643.2" y1="249.7" x2="643.2" y2="261.0" stroke="#2E6BD6" stroke-width="1"/>
<rect x="641.9" y="251.6" width="2.5" height="0.9" fill="#2E6BD6"/>
<rect x="641.9" y="379.6" width="2.5" height="0.4" fill="#2E6BD6" opacity="0.5"/>
<line x1="646.9" y1="250.5" x2="646.9" y2="260.7" stroke="#2E6BD6" stroke-width="1"/>
<rect x="645.7" y="253.2" width="2.5" height="4.6" fill="#2E6BD6"/>
<rect x="645.7" y="379.6" width="2.5" height="0.4" fill="#2E6BD6" opacity="0.5"/>
<line x1="650.7" y1="254.8" x2="650.7" y2="265.8" stroke="#2E6BD6" stroke-width="1"/>
<rect x="649.4" y="257.8" width="2.5" height="3.2" fill="#2E6BD6"/>
<rect x="649.4" y="379.5" width="2.5" height="0.5" fill="#2E6BD6" opacity="0.5"/>
<line x1="654.4" y1="261.5" x2="654.4" y2="272.5" stroke="#2E6BD6" stroke-width="1"/>
<rect x="653.2" y="262.3" width="2.5" height="3.5" fill="#2E6BD6"/>
<rect x="653.2" y="379.5" width="2.5" height="0.5" fill="#2E6BD6" opacity="0.5"/>
<line x1="658.2" y1="259.1" x2="658.2" y2="270.9" stroke="#C6403F" stroke-width="1"/>
<rect x="656.9" y="260.5" width="2.5" height="10.5" fill="#C6403F"/>
<rect x="656.9" y="379.7" width="2.5" height="0.3" fill="#C6403F" opacity="0.5"/>
<line x1="661.9" y1="258.9" x2="661.9" y2="274.7" stroke="#2E6BD6" stroke-width="1"/>
<rect x="660.7" y="260.5" width="2.5" height="10.2" fill="#2E6BD6"/>
<rect x="660.7" y="379.7" width="2.5" height="0.3" fill="#2E6BD6" opacity="0.5"/>
<line x1="665.7" y1="274.7" x2="665.7" y2="287.6" stroke="#C6403F" stroke-width="1"/>
<rect x="664.4" y="281.7" width="2.5" height="1.6" fill="#C6403F"/>
<rect x="664.4" y="379.5" width="2.5" height="0.5" fill="#C6403F" opacity="0.5"/>
<line x1="669.4" y1="268.5" x2="669.4" y2="286.5" stroke="#C6403F" stroke-width="1"/>
<rect x="668.2" y="269.9" width="2.5" height="16.7" fill="#C6403F"/>
<rect x="668.2" y="379.7" width="2.5" height="0.3" fill="#C6403F" opacity="0.5"/>
<line x1="673.1" y1="269.6" x2="673.1" y2="279.8" stroke="#2E6BD6" stroke-width="1"/>
<rect x="671.9" y="270.1" width="2.5" height="4.8" fill="#2E6BD6"/>
<rect x="671.9" y="379.8" width="2.5" height="0.2" fill="#2E6BD6" opacity="0.5"/>
<line x1="676.9" y1="275.5" x2="676.9" y2="286.0" stroke="#2E6BD6" stroke-width="1"/>
<rect x="675.7" y="276.0" width="2.5" height="0.9" fill="#2E6BD6"/>
<rect x="675.7" y="379.8" width="2.5" height="0.2" fill="#2E6BD6" opacity="0.5"/>
<line x1="680.6" y1="268.8" x2="680.6" y2="276.3" stroke="#C6403F" stroke-width="1"/>
<rect x="679.4" y="272.8" width="2.5" height="3.2" fill="#C6403F"/>
<rect x="679.4" y="379.8" width="2.5" height="0.2" fill="#C6403F" opacity="0.5"/>
<line x1="684.4" y1="265.8" x2="684.4" y2="275.5" stroke="#2E6BD6" stroke-width="1"/>
<rect x="683.1" y="272.3" width="2.5" height="1.3" fill="#2E6BD6"/>
<rect x="683.1" y="379.8" width="2.5" height="0.2" fill="#2E6BD6" opacity="0.5"/>
<line x1="688.1" y1="271.5" x2="688.1" y2="277.1" stroke="#2E6BD6" stroke-width="1"/>
<rect x="686.9" y="274.7" width="2.5" height="1.3" fill="#2E6BD6"/>
<rect x="686.9" y="379.9" width="2.5" height="0.1" fill="#2E6BD6" opacity="0.5"/>
<line x1="12" y1="380" x2="690" y2="380" stroke="#E6E8EC" stroke-width="1"/>
<text x="696" y="327" font-size="9.5" fill="#667085">거래량</text>
<text x="12.6" y="395" font-size="10" text-anchor="start" fill="#667085">2025년 9월</text>
<text x="126.2" y="395" font-size="10" text-anchor="middle" fill="#667085">11월</text>
<text x="201.2" y="395" font-size="10" text-anchor="middle" fill="#667085">12월</text>
<text x="279.8" y="395" font-size="10" text-anchor="middle" fill="#667085">2026년 1월</text>
<text x="358.5" y="395" font-size="10" text-anchor="middle" fill="#667085">2월</text>
<text x="422.2" y="395" font-size="10" text-anchor="middle" fill="#667085">3월</text>
<text x="500.8" y="395" font-size="10" text-anchor="middle" fill="#667085">4월</text>
<text x="583.2" y="395" font-size="10" text-anchor="middle" fill="#667085">5월</text>
<text x="650.7" y="395" font-size="10" text-anchor="middle" fill="#667085">6월</text>
<ellipse cx="351.0" cy="147.9" rx="9" ry="16" fill="none" stroke="#1F2937" stroke-width="1.4"/>
<text x="351.0" y="113.9" font-size="12" font-weight="700" text-anchor="middle" fill="#1F2937">신호</text>
<text x="702" y="427" font-size="9.5" text-anchor="end" fill="#9AA1AB">씨피시스템(413630) 일봉 · 2025년 9월~2026년 6월 · 수정주가</text>
<text x="10" y="427" font-size="9.5" fill="#9AA1AB">점선 = 20일 이동평균 · 실선 = 60일 이동평균</text>
<text x="10" y="410" font-size="11.5" fill="#667085">같은 신호 54회 가운데 결과가 가장 나빴던 한 번</text>
</svg>