<svg xmlns="http://www.w3.org/2000/svg" viewBox="0 0 760 470" width="760" height="470" font-family="Malgun Gothic, 맑은 고딕, sans-serif">
<rect width="760" height="470" fill="#FFFFFF"/>
<text x="10" y="27" font-size="16" font-weight="700" fill="#1F2937">같은 가격대에서 반복해서 막혔습니다</text>
<text x="10" y="47" font-size="12" fill="#667085">저항은 신비한 힘이 아니라 그 가격에서 물린 사람들의 매도 주문입니다</text>
<line x1="12" y1="299.4" x2="690" y2="299.4" stroke="#F0F1F3" stroke-width="1"/>
<text x="696" y="303.0" font-size="10" fill="#667085">900,000</text>
<line x1="12" y1="226.3" x2="690" y2="226.3" stroke="#F0F1F3" stroke-width="1"/>
<text x="696" y="229.9" font-size="10" fill="#667085">1,000,000</text>
<line x1="12" y1="153.2" x2="690" y2="153.2" stroke="#F0F1F3" stroke-width="1"/>
<text x="696" y="156.8" font-size="10" fill="#667085">1,100,000</text>
<line x1="12" y1="80.1" x2="690" y2="80.1" stroke="#F0F1F3" stroke-width="1"/>
<text x="696" y="83.7" font-size="10" fill="#667085">1,200,000</text>
<line x1="14.2" y1="272.4" x2="14.2" y2="294.3" stroke="#C6403F" stroke-width="1"/>
<rect x="12.8" y="278.2" width="3.0" height="16.1" fill="#C6403F"/>
<rect x="12.8" y="387.5" width="3.0" height="22.5" fill="#C6403F" opacity="0.5"/>
<line x1="18.7" y1="240.9" x2="18.7" y2="284.8" stroke="#C6403F" stroke-width="1"/>
<rect x="17.3" y="242.4" width="3.0" height="42.4" fill="#C6403F"/>
<rect x="17.3" y="370.1" width="3.0" height="39.9" fill="#C6403F" opacity="0.5"/>
<line x1="23.2" y1="220.5" x2="23.2" y2="249.7" stroke="#C6403F" stroke-width="1"/>
<rect x="21.7" y="220.5" width="3.0" height="25.6" fill="#C6403F"/>
<rect x="21.7" y="368.4" width="3.0" height="41.6" fill="#C6403F" opacity="0.5"/>
<line x1="27.7" y1="211.7" x2="27.7" y2="232.2" stroke="#C6403F" stroke-width="1"/>
<rect x="26.2" y="219.7" width="3.0" height="0.9" fill="#C6403F"/>
<rect x="26.2" y="364.8" width="3.0" height="45.2" fill="#C6403F" opacity="0.5"/>
<line x1="32.2" y1="189.0" x2="32.2" y2="231.4" stroke="#C6403F" stroke-width="1"/>
<rect x="30.7" y="190.5" width="3.0" height="29.2" fill="#C6403F"/>
<rect x="30.7" y="366.3" width="3.0" height="43.7" fill="#C6403F" opacity="0.5"/>
<line x1="36.7" y1="186.8" x2="36.7" y2="217.5" stroke="#2E6BD6" stroke-width="1"/>
<rect x="35.2" y="194.2" width="3.0" height="11.7" fill="#2E6BD6"/>
<rect x="35.2" y="384.2" width="3.0" height="25.8" fill="#2E6BD6" opacity="0.5"/>
<line x1="41.2" y1="191.2" x2="41.2" y2="227.8" stroke="#2E6BD6" stroke-width="1"/>
<rect x="39.7" y="215.4" width="3.0" height="11.7" fill="#2E6BD6"/>
<rect x="39.7" y="385.8" width="3.0" height="24.2" fill="#2E6BD6" opacity="0.5"/>
<line x1="45.7" y1="220.5" x2="45.7" y2="244.6" stroke="#2E6BD6" stroke-width="1"/>
<rect x="44.2" y="220.5" width="3.0" height="7.3" fill="#2E6BD6"/>
<rect x="44.2" y="391.4" width="3.0" height="18.6" fill="#2E6BD6" opacity="0.5"/>
<line x1="50.2" y1="219.0" x2="50.2" y2="252.6" stroke="#2E6BD6" stroke-width="1"/>
<rect x="48.7" y="225.6" width="3.0" height="17.5" fill="#2E6BD6"/>
<rect x="48.7" y="364.5" width="3.0" height="45.5" fill="#2E6BD6" opacity="0.5"/>
<line x1="54.7" y1="241.7" x2="54.7" y2="254.8" stroke="#2E6BD6" stroke-width="1"/>
<rect x="53.2" y="243.1" width="3.0" height="8.0" fill="#2E6BD6"/>
<rect x="53.2" y="393.3" width="3.0" height="16.7" fill="#2E6BD6" opacity="0.5"/>
<line x1="59.1" y1="238.7" x2="59.1" y2="257.0" stroke="#2E6BD6" stroke-width="1"/>
<rect x="57.7" y="251.9" width="3.0" height="5.1" fill="#2E6BD6"/>
<rect x="57.7" y="396.3" width="3.0" height="13.7" fill="#2E6BD6" opacity="0.5"/>
<line x1="63.6" y1="244.6" x2="63.6" y2="260.7" stroke="#C6403F" stroke-width="1"/>
<rect x="62.2" y="249.7" width="3.0" height="11.0" fill="#C6403F"/>
<rect x="62.2" y="401.6" width="3.0" height="8.4" fill="#C6403F" opacity="0.5"/>
<line x1="68.1" y1="245.3" x2="68.1" y2="255.6" stroke="#C6403F" stroke-width="1"/>
<rect x="66.6" y="246.1" width="3.0" height="8.0" fill="#C6403F"/>
<rect x="66.6" y="393.4" width="3.0" height="16.6" fill="#C6403F" opacity="0.5"/>
<line x1="72.6" y1="242.4" x2="72.6" y2="252.6" stroke="#C6403F" stroke-width="1"/>
<rect x="71.1" y="242.4" width="3.0" height="3.7" fill="#C6403F"/>
<rect x="71.1" y="399.7" width="3.0" height="10.3" fill="#C6403F" opacity="0.5"/>
<line x1="77.1" y1="239.5" x2="77.1" y2="253.4" stroke="#C6403F" stroke-width="1"/>
<rect x="75.6" y="239.5" width="3.0" height="3.7" fill="#C6403F"/>
<rect x="75.6" y="398.8" width="3.0" height="11.2" fill="#C6403F" opacity="0.5"/>
<line x1="81.6" y1="238.0" x2="81.6" y2="251.2" stroke="#C6403F" stroke-width="1"/>
<rect x="80.1" y="242.4" width="3.0" height="5.8" fill="#C6403F"/>
<rect x="80.1" y="400.7" width="3.0" height="9.3" fill="#C6403F" opacity="0.5"/>
<line x1="86.1" y1="247.5" x2="86.1" y2="262.9" stroke="#2E6BD6" stroke-width="1"/>
<rect x="84.6" y="249.0" width="3.0" height="13.9" fill="#2E6BD6"/>
<rect x="84.6" y="396.9" width="3.0" height="13.1" fill="#2E6BD6" opacity="0.5"/>
<line x1="90.6" y1="252.6" x2="90.6" y2="265.1" stroke="#2E6BD6" stroke-width="1"/>
<rect x="89.1" y="256.3" width="3.0" height="8.8" fill="#2E6BD6"/>
<rect x="89.1" y="398.6" width="3.0" height="11.4" fill="#2E6BD6" opacity="0.5"/>
<line x1="95.1" y1="254.8" x2="95.1" y2="265.1" stroke="#2E6BD6" stroke-width="1"/>
<rect x="93.6" y="255.6" width="3.0" height="5.8" fill="#2E6BD6"/>
<rect x="93.6" y="405.6" width="3.0" height="4.4" fill="#2E6BD6" opacity="0.5"/>
<line x1="99.6" y1="258.5" x2="99.6" y2="272.4" stroke="#2E6BD6" stroke-width="1"/>
<rect x="98.1" y="269.5" width="3.0" height="2.9" fill="#2E6BD6"/>
<rect x="98.1" y="401.1" width="3.0" height="8.9" fill="#2E6BD6" opacity="0.5"/>
<line x1="104.0" y1="253.4" x2="104.0" y2="279.0" stroke="#C6403F" stroke-width="1"/>
<rect x="102.6" y="255.6" width="3.0" height="21.2" fill="#C6403F"/>
<rect x="102.6" y="397.8" width="3.0" height="12.2" fill="#C6403F" opacity="0.5"/>
<line x1="108.5" y1="240.2" x2="108.5" y2="257.8" stroke="#C6403F" stroke-width="1"/>
<rect x="107.1" y="241.7" width="3.0" height="16.1" fill="#C6403F"/>
<rect x="107.1" y="398.5" width="3.0" height="11.5" fill="#C6403F" opacity="0.5"/>
<line x1="113.0" y1="242.4" x2="113.0" y2="254.8" stroke="#2E6BD6" stroke-width="1"/>
<rect x="111.5" y="248.3" width="3.0" height="6.6" fill="#2E6BD6"/>
<rect x="111.5" y="403.8" width="3.0" height="6.2" fill="#2E6BD6" opacity="0.5"/>
<line x1="117.5" y1="249.0" x2="117.5" y2="272.4" stroke="#C6403F" stroke-width="1"/>
<rect x="116.0" y="253.4" width="3.0" height="5.8" fill="#C6403F"/>
<rect x="116.0" y="397.3" width="3.0" height="12.7" fill="#C6403F" opacity="0.5"/>
<line x1="122.0" y1="255.6" x2="122.0" y2="269.5" stroke="#2E6BD6" stroke-width="1"/>
<rect x="120.5" y="261.4" width="3.0" height="6.6" fill="#2E6BD6"/>
<rect x="120.5" y="398.1" width="3.0" height="11.9" fill="#2E6BD6" opacity="0.5"/>
<line x1="126.5" y1="255.6" x2="126.5" y2="276.0" stroke="#C6403F" stroke-width="1"/>
<rect x="125.0" y="267.3" width="3.0" height="8.0" fill="#C6403F"/>
<rect x="125.0" y="393.4" width="3.0" height="16.6" fill="#C6403F" opacity="0.5"/>
<line x1="131.0" y1="231.4" x2="131.0" y2="267.3" stroke="#C6403F" stroke-width="1"/>
<rect x="129.5" y="231.4" width="3.0" height="35.8" fill="#C6403F"/>
<rect x="129.5" y="389.2" width="3.0" height="20.8" fill="#C6403F" opacity="0.5"/>
<line x1="135.5" y1="228.5" x2="135.5" y2="249.7" stroke="#2E6BD6" stroke-width="1"/>
<rect x="134.0" y="228.5" width="3.0" height="2.9" fill="#2E6BD6"/>
<rect x="134.0" y="379.1" width="3.0" height="30.9" fill="#2E6BD6" opacity="0.5"/>
<line x1="140.0" y1="219.7" x2="140.0" y2="243.1" stroke="#2E6BD6" stroke-width="1"/>
<rect x="138.5" y="231.4" width="3.0" height="1.5" fill="#2E6BD6"/>
<rect x="138.5" y="391.4" width="3.0" height="18.6" fill="#2E6BD6" opacity="0.5"/>
<line x1="144.5" y1="216.8" x2="144.5" y2="237.3" stroke="#2E6BD6" stroke-width="1"/>
<rect x="143.0" y="216.8" width="3.0" height="13.9" fill="#2E6BD6"/>
<rect x="143.0" y="396.1" width="3.0" height="13.9" fill="#2E6BD6" opacity="0.5"/>
<line x1="148.9" y1="224.1" x2="148.9" y2="246.1" stroke="#2E6BD6" stroke-width="1"/>
<rect x="147.5" y="230.0" width="3.0" height="5.8" fill="#2E6BD6"/>
<rect x="147.5" y="388.9" width="3.0" height="21.1" fill="#2E6BD6" opacity="0.5"/>
<line x1="153.4" y1="224.9" x2="153.4" y2="240.9" stroke="#2E6BD6" stroke-width="1"/>
<rect x="152.0" y="239.5" width="3.0" height="0.9" fill="#2E6BD6"/>
<rect x="152.0" y="397.0" width="3.0" height="13.0" fill="#2E6BD6" opacity="0.5"/>
<line x1="157.9" y1="235.8" x2="157.9" y2="259.2" stroke="#C6403F" stroke-width="1"/>
<rect x="156.4" y="237.3" width="3.0" height="8.0" fill="#C6403F"/>
<rect x="156.4" y="394.9" width="3.0" height="15.1" fill="#C6403F" opacity="0.5"/>
<line x1="162.4" y1="228.5" x2="162.4" y2="236.6" stroke="#C6403F" stroke-width="1"/>
<rect x="160.9" y="231.4" width="3.0" height="0.9" fill="#C6403F"/>
<rect x="160.9" y="396.7" width="3.0" height="13.3" fill="#C6403F" opacity="0.5"/>
<line x1="166.9" y1="227.1" x2="166.9" y2="239.5" stroke="#C6403F" stroke-width="1"/>
<rect x="165.4" y="227.1" width="3.0" height="0.9" fill="#C6403F"/>
<rect x="165.4" y="399.2" width="3.0" height="10.8" fill="#C6403F" opacity="0.5"/>
<line x1="171.4" y1="219.0" x2="171.4" y2="239.5" stroke="#2E6BD6" stroke-width="1"/>
<rect x="169.9" y="219.0" width="3.0" height="8.0" fill="#2E6BD6"/>
<rect x="169.9" y="396.2" width="3.0" height="13.8" fill="#2E6BD6" opacity="0.5"/>
<line x1="175.9" y1="227.1" x2="175.9" y2="239.5" stroke="#2E6BD6" stroke-width="1"/>
<rect x="174.4" y="227.1" width="3.0" height="11.0" fill="#2E6BD6"/>
<rect x="174.4" y="400.7" width="3.0" height="9.3" fill="#2E6BD6" opacity="0.5"/>
<line x1="180.4" y1="231.4" x2="180.4" y2="260.7" stroke="#C6403F" stroke-width="1"/>
<rect x="178.9" y="231.4" width="3.0" height="2.9" fill="#C6403F"/>
<rect x="178.9" y="395.9" width="3.0" height="14.1" fill="#C6403F" opacity="0.5"/>
<line x1="184.9" y1="219.0" x2="184.9" y2="241.7" stroke="#C6403F" stroke-width="1"/>
<rect x="183.4" y="219.7" width="3.0" height="8.8" fill="#C6403F"/>
<rect x="183.4" y="394.5" width="3.0" height="15.5" fill="#C6403F" opacity="0.5"/>
<line x1="189.4" y1="217.5" x2="189.4" y2="230.7" stroke="#C6403F" stroke-width="1"/>
<rect x="187.9" y="221.2" width="3.0" height="9.5" fill="#C6403F"/>
<rect x="187.9" y="401.3" width="3.0" height="8.7" fill="#C6403F" opacity="0.5"/>
<line x1="193.8" y1="228.5" x2="193.8" y2="243.9" stroke="#C6403F" stroke-width="1"/>
<rect x="192.4" y="228.5" width="3.0" height="5.1" fill="#C6403F"/>
<rect x="192.4" y="390.4" width="3.0" height="19.6" fill="#C6403F" opacity="0.5"/>
<line x1="198.3" y1="214.6" x2="198.3" y2="233.6" stroke="#2E6BD6" stroke-width="1"/>
<rect x="196.9" y="214.6" width="3.0" height="14.6" fill="#2E6BD6"/>
<rect x="196.9" y="399.6" width="3.0" height="10.4" fill="#2E6BD6" opacity="0.5"/>
<line x1="202.8" y1="218.3" x2="202.8" y2="240.9" stroke="#2E6BD6" stroke-width="1"/>
<rect x="201.3" y="219.0" width="3.0" height="16.1" fill="#2E6BD6"/>
<rect x="201.3" y="399.8" width="3.0" height="10.2" fill="#2E6BD6" opacity="0.5"/>
<line x1="207.3" y1="220.5" x2="207.3" y2="247.5" stroke="#C6403F" stroke-width="1"/>
<rect x="205.8" y="235.8" width="3.0" height="6.6" fill="#C6403F"/>
<rect x="205.8" y="389.2" width="3.0" height="20.8" fill="#C6403F" opacity="0.5"/>
<line x1="211.8" y1="219.0" x2="211.8" y2="249.0" stroke="#C6403F" stroke-width="1"/>
<rect x="210.3" y="219.0" width="3.0" height="23.4" fill="#C6403F"/>
<rect x="210.3" y="392.4" width="3.0" height="17.6" fill="#C6403F" opacity="0.5"/>
<line x1="216.3" y1="200.7" x2="216.3" y2="221.9" stroke="#C6403F" stroke-width="1"/>
<rect x="214.8" y="205.1" width="3.0" height="11.0" fill="#C6403F"/>
<rect x="214.8" y="391.1" width="3.0" height="18.9" fill="#C6403F" opacity="0.5"/>
<line x1="220.8" y1="196.3" x2="220.8" y2="218.3" stroke="#2E6BD6" stroke-width="1"/>
<rect x="219.3" y="206.6" width="3.0" height="2.2" fill="#2E6BD6"/>
<rect x="219.3" y="392.7" width="3.0" height="17.3" fill="#2E6BD6" opacity="0.5"/>
<line x1="225.3" y1="204.4" x2="225.3" y2="217.5" stroke="#C6403F" stroke-width="1"/>
<rect x="223.8" y="206.6" width="3.0" height="2.9" fill="#C6403F"/>
<rect x="223.8" y="390.5" width="3.0" height="19.5" fill="#C6403F" opacity="0.5"/>
<line x1="229.8" y1="203.7" x2="229.8" y2="220.5" stroke="#2E6BD6" stroke-width="1"/>
<rect x="228.3" y="216.8" width="3.0" height="1.5" fill="#2E6BD6"/>
<rect x="228.3" y="386.9" width="3.0" height="23.1" fill="#2E6BD6" opacity="0.5"/>
<line x1="234.3" y1="219.0" x2="234.3" y2="235.1" stroke="#2E6BD6" stroke-width="1"/>
<rect x="232.8" y="222.7" width="3.0" height="11.0" fill="#2E6BD6"/>
<rect x="232.8" y="386.5" width="3.0" height="23.5" fill="#2E6BD6" opacity="0.5"/>
<line x1="238.7" y1="224.1" x2="238.7" y2="239.5" stroke="#C6403F" stroke-width="1"/>
<rect x="237.3" y="224.1" width="3.0" height="9.5" fill="#C6403F"/>
<rect x="237.3" y="396.9" width="3.0" height="13.1" fill="#C6403F" opacity="0.5"/>
<line x1="243.2" y1="231.4" x2="243.2" y2="247.5" stroke="#2E6BD6" stroke-width="1"/>
<rect x="241.8" y="231.4" width="3.0" height="4.4" fill="#2E6BD6"/>
<rect x="241.8" y="383.4" width="3.0" height="26.6" fill="#2E6BD6" opacity="0.5"/>
<line x1="247.7" y1="229.2" x2="247.7" y2="241.7" stroke="#C6403F" stroke-width="1"/>
<rect x="246.2" y="232.9" width="3.0" height="8.8" fill="#C6403F"/>
<rect x="246.2" y="393.1" width="3.0" height="16.9" fill="#C6403F" opacity="0.5"/>
<line x1="252.2" y1="236.6" x2="252.2" y2="243.9" stroke="#2E6BD6" stroke-width="1"/>
<rect x="250.7" y="238.7" width="3.0" height="5.1" fill="#2E6BD6"/>
<rect x="250.7" y="392.9" width="3.0" height="17.1" fill="#2E6BD6" opacity="0.5"/>
<line x1="256.7" y1="230.7" x2="256.7" y2="248.3" stroke="#2E6BD6" stroke-width="1"/>
<rect x="255.2" y="230.7" width="3.0" height="8.0" fill="#2E6BD6"/>
<rect x="255.2" y="388.1" width="3.0" height="21.9" fill="#2E6BD6" opacity="0.5"/>
<line x1="261.2" y1="239.5" x2="261.2" y2="249.0" stroke="#C6403F" stroke-width="1"/>
<rect x="259.7" y="242.4" width="3.0" height="2.9" fill="#C6403F"/>
<rect x="259.7" y="386.5" width="3.0" height="23.5" fill="#C6403F" opacity="0.5"/>
<line x1="265.7" y1="236.6" x2="265.7" y2="256.3" stroke="#C6403F" stroke-width="1"/>
<rect x="264.2" y="246.1" width="3.0" height="0.9" fill="#C6403F"/>
<rect x="264.2" y="389.8" width="3.0" height="20.2" fill="#C6403F" opacity="0.5"/>
<line x1="270.2" y1="242.4" x2="270.2" y2="257.8" stroke="#2E6BD6" stroke-width="1"/>
<rect x="268.7" y="242.4" width="3.0" height="11.7" fill="#2E6BD6"/>
<rect x="268.7" y="380.8" width="3.0" height="29.2" fill="#2E6BD6" opacity="0.5"/>
<line x1="274.7" y1="247.5" x2="274.7" y2="269.5" stroke="#2E6BD6" stroke-width="1"/>
<rect x="273.2" y="256.3" width="3.0" height="11.0" fill="#2E6BD6"/>
<rect x="273.2" y="364.3" width="3.0" height="45.7" fill="#2E6BD6" opacity="0.5"/>
<line x1="279.2" y1="262.9" x2="279.2" y2="273.1" stroke="#C6403F" stroke-width="1"/>
<rect x="277.7" y="268.0" width="3.0" height="1.5" fill="#C6403F"/>
<rect x="277.7" y="392.2" width="3.0" height="17.8" fill="#C6403F" opacity="0.5"/>
<line x1="283.6" y1="270.2" x2="283.6" y2="294.3" stroke="#2E6BD6" stroke-width="1"/>
<rect x="282.2" y="275.3" width="3.0" height="17.5" fill="#2E6BD6"/>
<rect x="282.2" y="381.4" width="3.0" height="28.6" fill="#2E6BD6" opacity="0.5"/>
<line x1="288.1" y1="286.3" x2="288.1" y2="299.4" stroke="#2E6BD6" stroke-width="1"/>
<rect x="286.7" y="286.3" width="3.0" height="10.2" fill="#2E6BD6"/>
<rect x="286.7" y="378.4" width="3.0" height="31.6" fill="#2E6BD6" opacity="0.5"/>
<line x1="292.6" y1="289.2" x2="292.6" y2="301.6" stroke="#C6403F" stroke-width="1"/>
<rect x="291.1" y="290.7" width="3.0" height="8.0" fill="#C6403F"/>
<rect x="291.1" y="385.3" width="3.0" height="24.7" fill="#C6403F" opacity="0.5"/>
<line x1="297.1" y1="285.5" x2="297.1" y2="307.5" stroke="#C6403F" stroke-width="1"/>
<rect x="295.6" y="285.5" width="3.0" height="5.1" fill="#C6403F"/>
<rect x="295.6" y="371.7" width="3.0" height="38.3" fill="#C6403F" opacity="0.5"/>
<line x1="301.6" y1="286.3" x2="301.6" y2="298.0" stroke="#C6403F" stroke-width="1"/>
<rect x="300.1" y="291.4" width="3.0" height="6.6" fill="#C6403F"/>
<rect x="300.1" y="392.4" width="3.0" height="17.6" fill="#C6403F" opacity="0.5"/>
<line x1="306.1" y1="284.1" x2="306.1" y2="293.6" stroke="#C6403F" stroke-width="1"/>
<rect x="304.6" y="285.5" width="3.0" height="8.0" fill="#C6403F"/>
<rect x="304.6" y="398.3" width="3.0" height="11.7" fill="#C6403F" opacity="0.5"/>
<line x1="310.6" y1="284.1" x2="310.6" y2="299.4" stroke="#2E6BD6" stroke-width="1"/>
<rect x="309.1" y="284.1" width="3.0" height="13.9" fill="#2E6BD6"/>
<rect x="309.1" y="391.0" width="3.0" height="19.0" fill="#2E6BD6" opacity="0.5"/>
<line x1="315.1" y1="298.0" x2="315.1" y2="311.1" stroke="#2E6BD6" stroke-width="1"/>
<rect x="313.6" y="298.0" width="3.0" height="12.4" fill="#2E6BD6"/>
<rect x="313.6" y="390.1" width="3.0" height="19.9" fill="#2E6BD6" opacity="0.5"/>
<line x1="319.6" y1="288.5" x2="319.6" y2="311.9" stroke="#C6403F" stroke-width="1"/>
<rect x="318.1" y="308.2" width="3.0" height="3.7" fill="#C6403F"/>
<rect x="318.1" y="386.1" width="3.0" height="23.9" fill="#C6403F" opacity="0.5"/>
<line x1="324.1" y1="294.3" x2="324.1" y2="307.5" stroke="#2E6BD6" stroke-width="1"/>
<rect x="322.6" y="295.8" width="3.0" height="11.0" fill="#2E6BD6"/>
<rect x="322.6" y="381.0" width="3.0" height="29.0" fill="#2E6BD6" opacity="0.5"/>
<line x1="328.5" y1="302.4" x2="328.5" y2="313.3" stroke="#C6403F" stroke-width="1"/>
<rect x="327.1" y="304.6" width="3.0" height="5.1" fill="#C6403F"/>
<rect x="327.1" y="393.9" width="3.0" height="16.1" fill="#C6403F" opacity="0.5"/>
<line x1="333.0" y1="293.6" x2="333.0" y2="303.8" stroke="#C6403F" stroke-width="1"/>
<rect x="331.6" y="298.7" width="3.0" height="2.9" fill="#C6403F"/>
<rect x="331.6" y="386.2" width="3.0" height="23.8" fill="#C6403F" opacity="0.5"/>
<line x1="337.5" y1="294.3" x2="337.5" y2="308.9" stroke="#2E6BD6" stroke-width="1"/>
<rect x="336.0" y="298.0" width="3.0" height="4.4" fill="#2E6BD6"/>
<rect x="336.0" y="376.5" width="3.0" height="33.5" fill="#2E6BD6" opacity="0.5"/>
<line x1="342.0" y1="292.9" x2="342.0" y2="308.2" stroke="#C6403F" stroke-width="1"/>
<rect x="340.5" y="298.7" width="3.0" height="7.3" fill="#C6403F"/>
<rect x="340.5" y="383.1" width="3.0" height="26.9" fill="#C6403F" opacity="0.5"/>
<line x1="346.5" y1="291.4" x2="346.5" y2="302.4" stroke="#C6403F" stroke-width="1"/>
<rect x="345.0" y="294.3" width="3.0" height="8.0" fill="#C6403F"/>
<rect x="345.0" y="389.8" width="3.0" height="20.2" fill="#C6403F" opacity="0.5"/>
<line x1="351.0" y1="290.7" x2="351.0" y2="308.2" stroke="#C6403F" stroke-width="1"/>
<rect x="349.5" y="292.9" width="3.0" height="1.5" fill="#C6403F"/>
<rect x="349.5" y="393.8" width="3.0" height="16.2" fill="#C6403F" opacity="0.5"/>
<line x1="355.5" y1="292.1" x2="355.5" y2="299.4" stroke="#C6403F" stroke-width="1"/>
<rect x="354.0" y="298.7" width="3.0" height="0.9" fill="#C6403F"/>
<rect x="354.0" y="383.7" width="3.0" height="26.3" fill="#C6403F" opacity="0.5"/>
<line x1="360.0" y1="296.5" x2="360.0" y2="306.7" stroke="#C6403F" stroke-width="1"/>
<rect x="358.5" y="298.7" width="3.0" height="0.9" fill="#C6403F"/>
<rect x="358.5" y="383.9" width="3.0" height="26.1" fill="#C6403F" opacity="0.5"/>
<line x1="364.5" y1="298.7" x2="364.5" y2="305.3" stroke="#C6403F" stroke-width="1"/>
<rect x="363.0" y="299.4" width="3.0" height="4.4" fill="#C6403F"/>
<rect x="363.0" y="386.9" width="3.0" height="23.1" fill="#C6403F" opacity="0.5"/>
<line x1="369.0" y1="289.9" x2="369.0" y2="304.6" stroke="#C6403F" stroke-width="1"/>
<rect x="367.5" y="292.1" width="3.0" height="11.7" fill="#C6403F"/>
<rect x="367.5" y="390.7" width="3.0" height="19.3" fill="#C6403F" opacity="0.5"/>
<line x1="373.5" y1="291.4" x2="373.5" y2="300.9" stroke="#2E6BD6" stroke-width="1"/>
<rect x="372.0" y="294.3" width="3.0" height="5.1" fill="#2E6BD6"/>
<rect x="372.0" y="391.5" width="3.0" height="18.5" fill="#2E6BD6" opacity="0.5"/>
<line x1="377.9" y1="292.9" x2="377.9" y2="303.8" stroke="#C6403F" stroke-width="1"/>
<rect x="376.5" y="298.7" width="3.0" height="2.2" fill="#C6403F"/>
<rect x="376.5" y="394.9" width="3.0" height="15.1" fill="#C6403F" opacity="0.5"/>
<line x1="382.4" y1="298.0" x2="382.4" y2="304.6" stroke="#2E6BD6" stroke-width="1"/>
<rect x="380.9" y="300.9" width="3.0" height="1.5" fill="#2E6BD6"/>
<rect x="380.9" y="387.1" width="3.0" height="22.9" fill="#2E6BD6" opacity="0.5"/>
<line x1="386.9" y1="302.4" x2="386.9" y2="308.9" stroke="#2E6BD6" stroke-width="1"/>
<rect x="385.4" y="302.4" width="3.0" height="5.1" fill="#2E6BD6"/>
<rect x="385.4" y="386.2" width="3.0" height="23.8" fill="#2E6BD6" opacity="0.5"/>
<line x1="391.4" y1="301.6" x2="391.4" y2="308.9" stroke="#C6403F" stroke-width="1"/>
<rect x="389.9" y="303.1" width="3.0" height="5.8" fill="#C6403F"/>
<rect x="389.9" y="397.1" width="3.0" height="12.9" fill="#C6403F" opacity="0.5"/>
<line x1="395.9" y1="305.3" x2="395.9" y2="311.9" stroke="#2E6BD6" stroke-width="1"/>
<rect x="394.4" y="307.5" width="3.0" height="0.9" fill="#2E6BD6"/>
<rect x="394.4" y="397.0" width="3.0" height="13.0" fill="#2E6BD6" opacity="0.5"/>
<line x1="400.4" y1="306.7" x2="400.4" y2="313.3" stroke="#C6403F" stroke-width="1"/>
<rect x="398.9" y="307.5" width="3.0" height="5.1" fill="#C6403F"/>
<rect x="398.9" y="375.3" width="3.0" height="34.7" fill="#C6403F" opacity="0.5"/>
<line x1="404.9" y1="305.3" x2="404.9" y2="311.1" stroke="#C6403F" stroke-width="1"/>
<rect x="403.4" y="308.9" width="3.0" height="2.2" fill="#C6403F"/>
<rect x="403.4" y="386.3" width="3.0" height="23.7" fill="#C6403F" opacity="0.5"/>
<line x1="409.4" y1="292.1" x2="409.4" y2="312.6" stroke="#C6403F" stroke-width="1"/>
<rect x="407.9" y="292.1" width="3.0" height="17.5" fill="#C6403F"/>
<rect x="407.9" y="378.1" width="3.0" height="31.9" fill="#C6403F" opacity="0.5"/>
<line x1="413.9" y1="295.8" x2="413.9" y2="308.9" stroke="#2E6BD6" stroke-width="1"/>
<rect x="412.4" y="298.0" width="3.0" height="0.9" fill="#2E6BD6"/>
<rect x="412.4" y="386.2" width="3.0" height="23.8" fill="#2E6BD6" opacity="0.5"/>
<line x1="418.4" y1="295.8" x2="418.4" y2="308.2" stroke="#2E6BD6" stroke-width="1"/>
<rect x="416.9" y="306.0" width="3.0" height="0.9" fill="#2E6BD6"/>
<rect x="416.9" y="395.5" width="3.0" height="14.5" fill="#2E6BD6" opacity="0.5"/>
<line x1="422.8" y1="304.6" x2="422.8" y2="314.8" stroke="#C6403F" stroke-width="1"/>
<rect x="421.4" y="306.7" width="3.0" height="1.5" fill="#C6403F"/>
<rect x="421.4" y="348.0" width="3.0" height="62.0" fill="#C6403F" opacity="0.5"/>
<line x1="427.3" y1="306.7" x2="427.3" y2="314.8" stroke="#C6403F" stroke-width="1"/>
<rect x="425.8" y="308.2" width="3.0" height="3.7" fill="#C6403F"/>
<rect x="425.8" y="380.9" width="3.0" height="29.1" fill="#C6403F" opacity="0.5"/>
<line x1="431.8" y1="302.4" x2="431.8" y2="315.5" stroke="#C6403F" stroke-width="1"/>
<rect x="430.3" y="303.8" width="3.0" height="4.4" fill="#C6403F"/>
<rect x="430.3" y="377.4" width="3.0" height="32.6" fill="#C6403F" opacity="0.5"/>
<line x1="436.3" y1="294.3" x2="436.3" y2="310.4" stroke="#C6403F" stroke-width="1"/>
<rect x="434.8" y="297.2" width="3.0" height="6.6" fill="#C6403F"/>
<rect x="434.8" y="375.8" width="3.0" height="34.2" fill="#C6403F" opacity="0.5"/>
<line x1="440.8" y1="291.4" x2="440.8" y2="308.2" stroke="#C6403F" stroke-width="1"/>
<rect x="439.3" y="303.8" width="3.0" height="3.7" fill="#C6403F"/>
<rect x="439.3" y="387.5" width="3.0" height="22.5" fill="#C6403F" opacity="0.5"/>
<line x1="445.3" y1="302.4" x2="445.3" y2="311.1" stroke="#2E6BD6" stroke-width="1"/>
<rect x="443.8" y="307.5" width="3.0" height="1.5" fill="#2E6BD6"/>
<rect x="443.8" y="373.2" width="3.0" height="36.8" fill="#2E6BD6" opacity="0.5"/>
<line x1="449.8" y1="300.2" x2="449.8" y2="311.9" stroke="#C6403F" stroke-width="1"/>
<rect x="448.3" y="303.1" width="3.0" height="3.7" fill="#C6403F"/>
<rect x="448.3" y="378.4" width="3.0" height="31.6" fill="#C6403F" opacity="0.5"/>
<line x1="454.3" y1="300.2" x2="454.3" y2="310.4" stroke="#2E6BD6" stroke-width="1"/>
<rect x="452.8" y="301.6" width="3.0" height="4.4" fill="#2E6BD6"/>
<rect x="452.8" y="385.2" width="3.0" height="24.8" fill="#2E6BD6" opacity="0.5"/>
<line x1="458.8" y1="302.4" x2="458.8" y2="311.9" stroke="#C6403F" stroke-width="1"/>
<rect x="457.3" y="306.0" width="3.0" height="5.8" fill="#C6403F"/>
<rect x="457.3" y="372.0" width="3.0" height="38.0" fill="#C6403F" opacity="0.5"/>
<line x1="463.3" y1="304.6" x2="463.3" y2="312.6" stroke="#2E6BD6" stroke-width="1"/>
<rect x="461.8" y="309.7" width="3.0" height="2.2" fill="#2E6BD6"/>
<rect x="461.8" y="382.3" width="3.0" height="27.7" fill="#2E6BD6" opacity="0.5"/>
<line x1="467.7" y1="308.2" x2="467.7" y2="314.8" stroke="#C6403F" stroke-width="1"/>
<rect x="466.3" y="310.4" width="3.0" height="3.7" fill="#C6403F"/>
<rect x="466.3" y="385.1" width="3.0" height="24.9" fill="#C6403F" opacity="0.5"/>
<line x1="472.2" y1="289.2" x2="472.2" y2="311.9" stroke="#C6403F" stroke-width="1"/>
<rect x="470.8" y="289.9" width="3.0" height="21.9" fill="#C6403F"/>
<rect x="470.8" y="373.0" width="3.0" height="37.0" fill="#C6403F" opacity="0.5"/>
<line x1="476.7" y1="266.5" x2="476.7" y2="299.4" stroke="#2E6BD6" stroke-width="1"/>
<rect x="475.2" y="287.7" width="3.0" height="8.8" fill="#2E6BD6"/>
<rect x="475.2" y="358.4" width="3.0" height="51.6" fill="#2E6BD6" opacity="0.5"/>
<line x1="481.2" y1="267.3" x2="481.2" y2="296.5" stroke="#C6403F" stroke-width="1"/>
<rect x="479.7" y="267.3" width="3.0" height="26.3" fill="#C6403F"/>
<rect x="479.7" y="364.9" width="3.0" height="45.1" fill="#C6403F" opacity="0.5"/>
<line x1="485.7" y1="268.7" x2="485.7" y2="289.2" stroke="#2E6BD6" stroke-width="1"/>
<rect x="484.2" y="268.7" width="3.0" height="20.5" fill="#2E6BD6"/>
<rect x="484.2" y="373.2" width="3.0" height="36.8" fill="#2E6BD6" opacity="0.5"/>
<line x1="490.2" y1="280.4" x2="490.2" y2="294.3" stroke="#2E6BD6" stroke-width="1"/>
<rect x="488.7" y="280.4" width="3.0" height="11.0" fill="#2E6BD6"/>
<rect x="488.7" y="390.4" width="3.0" height="19.6" fill="#2E6BD6" opacity="0.5"/>
<line x1="494.7" y1="226.3" x2="494.7" y2="281.2" stroke="#C6403F" stroke-width="1"/>
<rect x="493.2" y="236.6" width="3.0" height="43.9" fill="#C6403F"/>
<rect x="493.2" y="348.0" width="3.0" height="62.0" fill="#C6403F" opacity="0.5"/>
<line x1="499.2" y1="238.0" x2="499.2" y2="258.5" stroke="#C6403F" stroke-width="1"/>
<rect x="497.7" y="249.0" width="3.0" height="2.2" fill="#C6403F"/>
<rect x="497.7" y="380.7" width="3.0" height="29.3" fill="#C6403F" opacity="0.5"/>
<line x1="503.7" y1="237.3" x2="503.7" y2="257.8" stroke="#2E6BD6" stroke-width="1"/>
<rect x="502.2" y="237.3" width="3.0" height="7.3" fill="#2E6BD6"/>
<rect x="502.2" y="380.7" width="3.0" height="29.3" fill="#2E6BD6" opacity="0.5"/>
<line x1="508.2" y1="228.5" x2="508.2" y2="244.6" stroke="#C6403F" stroke-width="1"/>
<rect x="506.7" y="236.6" width="3.0" height="0.9" fill="#C6403F"/>
<rect x="506.7" y="379.2" width="3.0" height="30.8" fill="#C6403F" opacity="0.5"/>
<line x1="512.6" y1="222.7" x2="512.6" y2="236.6" stroke="#C6403F" stroke-width="1"/>
<rect x="511.2" y="227.1" width="3.0" height="8.8" fill="#C6403F"/>
<rect x="511.2" y="375.2" width="3.0" height="34.8" fill="#C6403F" opacity="0.5"/>
<line x1="517.1" y1="216.1" x2="517.1" y2="232.2" stroke="#C6403F" stroke-width="1"/>
<rect x="515.7" y="227.8" width="3.0" height="4.4" fill="#C6403F"/>
<rect x="515.7" y="386.9" width="3.0" height="23.1" fill="#C6403F" opacity="0.5"/>
<line x1="521.6" y1="201.5" x2="521.6" y2="235.8" stroke="#C6403F" stroke-width="1"/>
<rect x="520.1" y="211.0" width="3.0" height="24.9" fill="#C6403F"/>
<rect x="520.1" y="376.6" width="3.0" height="33.4" fill="#C6403F" opacity="0.5"/>
<line x1="526.1" y1="169.3" x2="526.1" y2="212.4" stroke="#C6403F" stroke-width="1"/>
<rect x="524.6" y="170.8" width="3.0" height="41.7" fill="#C6403F"/>
<rect x="524.6" y="351.2" width="3.0" height="58.8" fill="#C6403F" opacity="0.5"/>
<line x1="530.6" y1="162.0" x2="530.6" y2="187.6" stroke="#C6403F" stroke-width="1"/>
<rect x="529.1" y="170.8" width="3.0" height="10.2" fill="#C6403F"/>
<rect x="529.1" y="370.3" width="3.0" height="39.7" fill="#C6403F" opacity="0.5"/>
<line x1="535.1" y1="148.1" x2="535.1" y2="181.7" stroke="#C6403F" stroke-width="1"/>
<rect x="533.6" y="153.9" width="3.0" height="27.8" fill="#C6403F"/>
<rect x="533.6" y="371.7" width="3.0" height="38.3" fill="#C6403F" opacity="0.5"/>
<line x1="539.6" y1="148.1" x2="539.6" y2="170.0" stroke="#2E6BD6" stroke-width="1"/>
<rect x="538.1" y="148.8" width="3.0" height="8.8" fill="#2E6BD6"/>
<rect x="538.1" y="388.2" width="3.0" height="21.8" fill="#2E6BD6" opacity="0.5"/>
<line x1="544.1" y1="145.9" x2="544.1" y2="172.2" stroke="#C6403F" stroke-width="1"/>
<rect x="542.6" y="153.2" width="3.0" height="4.4" fill="#C6403F"/>
<rect x="542.6" y="360.7" width="3.0" height="49.3" fill="#C6403F" opacity="0.5"/>
<line x1="548.6" y1="140.8" x2="548.6" y2="165.6" stroke="#C6403F" stroke-width="1"/>
<rect x="547.1" y="142.2" width="3.0" height="17.5" fill="#C6403F"/>
<rect x="547.1" y="384.6" width="3.0" height="25.4" fill="#C6403F" opacity="0.5"/>
<line x1="553.1" y1="140.0" x2="553.1" y2="156.1" stroke="#C6403F" stroke-width="1"/>
<rect x="551.6" y="141.5" width="3.0" height="8.8" fill="#C6403F"/>
<rect x="551.6" y="378.3" width="3.0" height="31.7" fill="#C6403F" opacity="0.5"/>
<line x1="557.5" y1="130.5" x2="557.5" y2="154.7" stroke="#C6403F" stroke-width="1"/>
<rect x="556.1" y="135.7" width="3.0" height="9.5" fill="#C6403F"/>
<rect x="556.1" y="377.5" width="3.0" height="32.5" fill="#C6403F" opacity="0.5"/>
<line x1="562.0" y1="126.2" x2="562.0" y2="152.5" stroke="#C6403F" stroke-width="1"/>
<rect x="560.6" y="136.4" width="3.0" height="8.8" fill="#C6403F"/>
<rect x="560.6" y="385.0" width="3.0" height="25.0" fill="#C6403F" opacity="0.5"/>
<line x1="566.5" y1="84.5" x2="566.5" y2="142.2" stroke="#C6403F" stroke-width="1"/>
<rect x="565.0" y="84.5" width="3.0" height="43.1" fill="#C6403F"/>
<rect x="565.0" y="348.0" width="3.0" height="62.0" fill="#C6403F" opacity="0.5"/>
<line x1="571.0" y1="84.5" x2="571.0" y2="126.9" stroke="#2E6BD6" stroke-width="1"/>
<rect x="569.5" y="94.0" width="3.0" height="26.3" fill="#2E6BD6"/>
<rect x="569.5" y="348.0" width="3.0" height="62.0" fill="#2E6BD6" opacity="0.5"/>
<line x1="575.5" y1="109.3" x2="575.5" y2="149.6" stroke="#2E6BD6" stroke-width="1"/>
<rect x="574.0" y="118.1" width="3.0" height="27.8" fill="#2E6BD6"/>
<rect x="574.0" y="378.1" width="3.0" height="31.9" fill="#2E6BD6" opacity="0.5"/>
<line x1="580.0" y1="115.9" x2="580.0" y2="159.1" stroke="#C6403F" stroke-width="1"/>
<rect x="578.5" y="121.8" width="3.0" height="37.3" fill="#C6403F"/>
<rect x="578.5" y="381.0" width="3.0" height="29.0" fill="#C6403F" opacity="0.5"/>
<line x1="584.5" y1="124.0" x2="584.5" y2="139.3" stroke="#C6403F" stroke-width="1"/>
<rect x="583.0" y="135.7" width="3.0" height="0.9" fill="#C6403F"/>
<rect x="583.0" y="388.1" width="3.0" height="21.9" fill="#C6403F" opacity="0.5"/>
<line x1="589.0" y1="121.0" x2="589.0" y2="148.8" stroke="#2E6BD6" stroke-width="1"/>
<rect x="587.5" y="146.6" width="3.0" height="0.9" fill="#2E6BD6"/>
<rect x="587.5" y="392.8" width="3.0" height="17.2" fill="#2E6BD6" opacity="0.5"/>
<line x1="593.5" y1="118.1" x2="593.5" y2="145.9" stroke="#C6403F" stroke-width="1"/>
<rect x="592.0" y="131.3" width="3.0" height="14.6" fill="#C6403F"/>
<rect x="592.0" y="391.8" width="3.0" height="18.2" fill="#C6403F" opacity="0.5"/>
<line x1="598.0" y1="137.9" x2="598.0" y2="146.6" stroke="#2E6BD6" stroke-width="1"/>
<rect x="596.5" y="138.6" width="3.0" height="5.1" fill="#2E6BD6"/>
<rect x="596.5" y="395.2" width="3.0" height="14.8" fill="#2E6BD6" opacity="0.5"/>
<line x1="602.4" y1="140.8" x2="602.4" y2="164.2" stroke="#2E6BD6" stroke-width="1"/>
<rect x="601.0" y="151.7" width="3.0" height="5.1" fill="#2E6BD6"/>
<rect x="601.0" y="385.5" width="3.0" height="24.5" fill="#2E6BD6" opacity="0.5"/>
<line x1="606.9" y1="141.5" x2="606.9" y2="160.5" stroke="#C6403F" stroke-width="1"/>
<rect x="605.5" y="153.9" width="3.0" height="6.6" fill="#C6403F"/>
<rect x="605.5" y="386.6" width="3.0" height="23.4" fill="#C6403F" opacity="0.5"/>
<line x1="611.4" y1="133.5" x2="611.4" y2="172.2" stroke="#C6403F" stroke-width="1"/>
<rect x="609.9" y="135.7" width="3.0" height="27.8" fill="#C6403F"/>
<rect x="609.9" y="385.5" width="3.0" height="24.5" fill="#C6403F" opacity="0.5"/>
<line x1="615.9" y1="132.0" x2="615.9" y2="152.5" stroke="#2E6BD6" stroke-width="1"/>
<rect x="614.4" y="132.0" width="3.0" height="19.7" fill="#2E6BD6"/>
<rect x="614.4" y="394.4" width="3.0" height="15.6" fill="#2E6BD6" opacity="0.5"/>
<line x1="620.4" y1="143.0" x2="620.4" y2="167.8" stroke="#2E6BD6" stroke-width="1"/>
<rect x="618.9" y="156.1" width="3.0" height="11.7" fill="#2E6BD6"/>
<rect x="618.9" y="398.3" width="3.0" height="11.7" fill="#2E6BD6" opacity="0.5"/>
<line x1="624.9" y1="155.4" x2="624.9" y2="174.4" stroke="#2E6BD6" stroke-width="1"/>
<rect x="623.4" y="172.2" width="3.0" height="2.2" fill="#2E6BD6"/>
<rect x="623.4" y="383.2" width="3.0" height="26.8" fill="#2E6BD6" opacity="0.5"/>
<line x1="629.4" y1="163.4" x2="629.4" y2="184.6" stroke="#C6403F" stroke-width="1"/>
<rect x="627.9" y="170.0" width="3.0" height="4.4" fill="#C6403F"/>
<rect x="627.9" y="381.2" width="3.0" height="28.8" fill="#C6403F" opacity="0.5"/>
<line x1="633.9" y1="159.8" x2="633.9" y2="184.6" stroke="#C6403F" stroke-width="1"/>
<rect x="632.4" y="170.0" width="3.0" height="0.9" fill="#C6403F"/>
<rect x="632.4" y="377.7" width="3.0" height="32.3" fill="#C6403F" opacity="0.5"/>
<line x1="638.4" y1="162.0" x2="638.4" y2="178.1" stroke="#C6403F" stroke-width="1"/>
<rect x="636.9" y="170.0" width="3.0" height="8.0" fill="#C6403F"/>
<rect x="636.9" y="395.1" width="3.0" height="14.9" fill="#C6403F" opacity="0.5"/>
<line x1="642.9" y1="145.9" x2="642.9" y2="176.6" stroke="#C6403F" stroke-width="1"/>
<rect x="641.4" y="150.3" width="3.0" height="26.3" fill="#C6403F"/>
<rect x="641.4" y="389.7" width="3.0" height="20.3" fill="#C6403F" opacity="0.5"/>
<line x1="647.3" y1="147.4" x2="647.3" y2="164.2" stroke="#C6403F" stroke-width="1"/>
<rect x="645.9" y="148.8" width="3.0" height="4.4" fill="#C6403F"/>
<rect x="645.9" y="394.4" width="3.0" height="15.6" fill="#C6403F" opacity="0.5"/>
<line x1="651.8" y1="143.0" x2="651.8" y2="165.6" stroke="#2E6BD6" stroke-width="1"/>
<rect x="650.4" y="162.0" width="3.0" height="3.7" fill="#2E6BD6"/>
<rect x="650.4" y="389.4" width="3.0" height="20.6" fill="#2E6BD6" opacity="0.5"/>
<line x1="656.3" y1="167.1" x2="656.3" y2="181.0" stroke="#2E6BD6" stroke-width="1"/>
<rect x="654.8" y="171.5" width="3.0" height="7.3" fill="#2E6BD6"/>
<rect x="654.8" y="382.9" width="3.0" height="27.1" fill="#2E6BD6" opacity="0.5"/>
<line x1="660.8" y1="158.3" x2="660.8" y2="185.4" stroke="#C6403F" stroke-width="1"/>
<rect x="659.3" y="162.7" width="3.0" height="22.7" fill="#C6403F"/>
<rect x="659.3" y="398.1" width="3.0" height="11.9" fill="#C6403F" opacity="0.5"/>
<line x1="665.3" y1="157.6" x2="665.3" y2="177.3" stroke="#C6403F" stroke-width="1"/>
<rect x="663.8" y="171.5" width="3.0" height="3.7" fill="#C6403F"/>
<rect x="663.8" y="399.1" width="3.0" height="10.9" fill="#C6403F" opacity="0.5"/>
<line x1="669.8" y1="157.6" x2="669.8" y2="192.7" stroke="#C6403F" stroke-width="1"/>
<rect x="668.3" y="171.5" width="3.0" height="3.7" fill="#C6403F"/>
<rect x="668.3" y="383.7" width="3.0" height="26.3" fill="#C6403F" opacity="0.5"/>
<line x1="674.3" y1="161.3" x2="674.3" y2="194.9" stroke="#2E6BD6" stroke-width="1"/>
<rect x="672.8" y="177.3" width="3.0" height="16.1" fill="#2E6BD6"/>
<rect x="672.8" y="384.4" width="3.0" height="25.6" fill="#2E6BD6" opacity="0.5"/>
<line x1="678.8" y1="117.4" x2="678.8" y2="193.4" stroke="#C6403F" stroke-width="1"/>
<rect x="677.3" y="153.9" width="3.0" height="39.5" fill="#C6403F"/>
<rect x="677.3" y="348.0" width="3.0" height="62.0" fill="#C6403F" opacity="0.5"/>
<line x1="683.3" y1="138.6" x2="683.3" y2="161.3" stroke="#C6403F" stroke-width="1"/>
<rect x="681.8" y="151.7" width="3.0" height="2.9" fill="#C6403F"/>
<rect x="681.8" y="384.4" width="3.0" height="25.6" fill="#C6403F" opacity="0.5"/>
<line x1="687.8" y1="130.5" x2="687.8" y2="152.5" stroke="#C6403F" stroke-width="1"/>
<rect x="686.3" y="150.3" width="3.0" height="1.5" fill="#C6403F"/>
<rect x="686.3" y="384.0" width="3.0" height="26.0" fill="#C6403F" opacity="0.5"/>
<line x1="12" y1="410" x2="690" y2="410" stroke="#E6E8EC" stroke-width="1"/>
<text x="696" y="357" font-size="9.5" fill="#667085">거래량</text>
<text x="12.8" y="425" font-size="10" text-anchor="start" fill="#667085">2016년 12월</text>
<text x="184.9" y="425" font-size="10" text-anchor="middle" fill="#667085">2월</text>
<text x="274.7" y="425" font-size="10" text-anchor="middle" fill="#667085">3월</text>
<text x="373.5" y="425" font-size="10" text-anchor="middle" fill="#667085">4월</text>
<text x="463.3" y="425" font-size="10" text-anchor="middle" fill="#667085">5월</text>
<text x="548.6" y="425" font-size="10" text-anchor="middle" fill="#667085">6월</text>
<text x="642.9" y="425" font-size="10" text-anchor="middle" fill="#667085">7월</text>
<line x1="12" y1="142.2" x2="690" y2="142.2" stroke="#B45309" stroke-width="1.6" stroke-dasharray="6 4"/>
<text x="16.0" y="136.2" font-size="11" text-anchor="start" fill="#B45309" font-weight="700">저항 1,115,000원 언저리</text>
<text x="702" y="457" font-size="9.5" text-anchor="end" fill="#9AA1AB">태광산업(003240) 일봉 · 2016년 12월~2017년 7월 · 수정주가</text>
<text x="10" y="440" font-size="11.5" fill="#667085">※ 과거 특정 구간의 실제 기록이며 종목 추천이 아닙니다.</text>
</svg>