<svg xmlns="http://www.w3.org/2000/svg" viewBox="0 0 760 470" width="760" height="470" font-family="Malgun Gothic, 맑은 고딕, sans-serif">
<rect width="760" height="470" fill="#FFFFFF"/>
<text x="10" y="27" font-size="16" font-weight="700" fill="#1F2937">뚫린 자리가 다음에는 받쳐 주었습니다</text>
<text x="10" y="47" font-size="12" fill="#667085">저항을 넘은 뒤 되돌아왔을 때, 그 자리가 이번에는 지지로 작동했습니다</text>
<line x1="12" y1="324.3" x2="690" y2="324.3" stroke="#F0F1F3" stroke-width="1"/>
<text x="696" y="327.9" font-size="10" fill="#667085">5,000</text>
<line x1="12" y1="254.6" x2="690" y2="254.6" stroke="#F0F1F3" stroke-width="1"/>
<text x="696" y="258.2" font-size="10" fill="#667085">10,000</text>
<line x1="12" y1="184.9" x2="690" y2="184.9" stroke="#F0F1F3" stroke-width="1"/>
<text x="696" y="188.5" font-size="10" fill="#667085">15,000</text>
<line x1="12" y1="115.2" x2="690" y2="115.2" stroke="#F0F1F3" stroke-width="1"/>
<text x="696" y="118.8" font-size="10" fill="#667085">20,000</text>
<polyline points="139.1,293.4 145.6,292.1 152.2,290.9 158.7,290.1 165.2,289.1 171.7,287.7 178.2,286.8 184.8,286.3 191.3,286.1 197.8,286.3 204.3,286.6 210.8,287.1 217.4,287.4 223.9,287.9 230.4,288.1 236.9,288.1 243.4,288.2 250.0,288.0 256.5,288.2 263.0,288.7 269.5,289.2 276.0,289.7 282.5,290.2 289.1,290.5 295.6,290.7 302.1,291.1 308.6,291.4 315.1,291.5 321.7,291.3 328.2,291.7 334.7,291.9 341.2,291.8 347.7,291.6 354.3,291.5 360.8,291.6 367.3,291.7 373.8,291.3 380.3,291.4 386.9,290.9 393.4,290.4 399.9,290.0 406.4,289.5 412.9,289.2 419.5,289.1 426.0,289.3 432.5,289.2 439.0,288.9 445.5,288.7 452.0,288.6 458.6,288.4 465.1,288.1 471.6,288.0 478.1,287.8 484.6,287.6 491.2,287.7 497.7,287.6 504.2,287.3 510.7,287.0 517.2,287.1 523.8,286.8 530.3,286.1 536.8,285.5 543.3,284.7 549.8,283.7 556.4,282.6 562.9,280.6 569.4,278.5 575.9,275.7 582.4,271.6 589.0,267.1 595.5,262.2 602.0,257.5 608.5,252.0 615.0,246.7 621.5,241.8 628.1,238.2 634.6,234.5 641.1,230.3 647.6,226.1 654.1,222.1 660.7,218.7 667.2,215.2 673.7,210.5 680.2,203.5 686.7,194.8" fill="none" stroke="#8A8F98" stroke-width="1.3" stroke-dasharray="4 3"/>
<line x1="15.3" y1="306.7" x2="15.3" y2="310.6" stroke="#C6403F" stroke-width="1"/>
<rect x="13.1" y="309.8" width="4.3" height="0.9" fill="#C6403F"/>
<rect x="13.1" y="406.9" width="4.3" height="3.1" fill="#C6403F" opacity="0.5"/>
<line x1="21.8" y1="304.9" x2="21.8" y2="310.9" stroke="#2E6BD6" stroke-width="1"/>
<rect x="19.6" y="307.2" width="4.3" height="0.9" fill="#2E6BD6"/>
<rect x="19.6" y="406.1" width="4.3" height="3.9" fill="#2E6BD6" opacity="0.5"/>
<line x1="28.3" y1="302.4" x2="28.3" y2="308.8" stroke="#C6403F" stroke-width="1"/>
<rect x="26.1" y="302.4" width="4.3" height="2.0" fill="#C6403F"/>
<rect x="26.1" y="403.2" width="4.3" height="6.8" fill="#C6403F" opacity="0.5"/>
<line x1="34.8" y1="301.0" x2="34.8" y2="309.7" stroke="#2E6BD6" stroke-width="1"/>
<rect x="32.7" y="304.8" width="4.3" height="0.9" fill="#2E6BD6"/>
<rect x="32.7" y="403.4" width="4.3" height="6.6" fill="#2E6BD6" opacity="0.5"/>
<line x1="41.3" y1="309.7" x2="41.3" y2="315.5" stroke="#2E6BD6" stroke-width="1"/>
<rect x="39.2" y="309.7" width="4.3" height="5.3" fill="#2E6BD6"/>
<rect x="39.2" y="406.6" width="4.3" height="3.4" fill="#2E6BD6" opacity="0.5"/>
<line x1="47.9" y1="304.6" x2="47.9" y2="312.4" stroke="#C6403F" stroke-width="1"/>
<rect x="45.7" y="306.2" width="4.3" height="5.9" fill="#C6403F"/>
<rect x="45.7" y="405.2" width="4.3" height="4.8" fill="#C6403F" opacity="0.5"/>
<line x1="54.4" y1="301.0" x2="54.4" y2="307.4" stroke="#2E6BD6" stroke-width="1"/>
<rect x="52.2" y="302.0" width="4.3" height="1.1" fill="#2E6BD6"/>
<rect x="52.2" y="403.6" width="4.3" height="6.4" fill="#2E6BD6" opacity="0.5"/>
<line x1="60.9" y1="295.6" x2="60.9" y2="301.9" stroke="#C6403F" stroke-width="1"/>
<rect x="58.7" y="298.1" width="4.3" height="1.5" fill="#C6403F"/>
<rect x="58.7" y="404.2" width="4.3" height="5.8" fill="#C6403F" opacity="0.5"/>
<line x1="67.4" y1="275.1" x2="67.4" y2="293.8" stroke="#C6403F" stroke-width="1"/>
<rect x="65.3" y="279.0" width="4.3" height="13.1" fill="#C6403F"/>
<rect x="65.3" y="363.7" width="4.3" height="46.3" fill="#C6403F" opacity="0.5"/>
<line x1="73.9" y1="274.2" x2="73.9" y2="281.1" stroke="#2E6BD6" stroke-width="1"/>
<rect x="71.8" y="274.2" width="4.3" height="4.7" fill="#2E6BD6"/>
<rect x="71.8" y="390.2" width="4.3" height="19.8" fill="#2E6BD6" opacity="0.5"/>
<line x1="80.5" y1="279.8" x2="80.5" y2="285.1" stroke="#2E6BD6" stroke-width="1"/>
<rect x="78.3" y="280.0" width="4.3" height="2.1" fill="#2E6BD6"/>
<rect x="78.3" y="400.8" width="4.3" height="9.2" fill="#2E6BD6" opacity="0.5"/>
<line x1="87.0" y1="283.9" x2="87.0" y2="292.0" stroke="#2E6BD6" stroke-width="1"/>
<rect x="84.8" y="285.1" width="4.3" height="3.6" fill="#2E6BD6"/>
<rect x="84.8" y="401.9" width="4.3" height="8.1" fill="#2E6BD6" opacity="0.5"/>
<line x1="93.5" y1="283.7" x2="93.5" y2="288.0" stroke="#C6403F" stroke-width="1"/>
<rect x="91.3" y="284.7" width="4.3" height="1.5" fill="#C6403F"/>
<rect x="91.3" y="403.9" width="4.3" height="6.1" fill="#C6403F" opacity="0.5"/>
<line x1="100.0" y1="281.9" x2="100.0" y2="288.3" stroke="#2E6BD6" stroke-width="1"/>
<rect x="97.9" y="282.8" width="4.3" height="2.1" fill="#2E6BD6"/>
<rect x="97.9" y="405.5" width="4.3" height="4.5" fill="#2E6BD6" opacity="0.5"/>
<line x1="106.5" y1="285.8" x2="106.5" y2="289.9" stroke="#2E6BD6" stroke-width="1"/>
<rect x="104.4" y="285.8" width="4.3" height="2.8" fill="#2E6BD6"/>
<rect x="104.4" y="406.4" width="4.3" height="3.6" fill="#2E6BD6" opacity="0.5"/>
<line x1="113.0" y1="288.6" x2="113.0" y2="292.7" stroke="#C6403F" stroke-width="1"/>
<rect x="110.9" y="290.7" width="4.3" height="1.3" fill="#C6403F"/>
<rect x="110.9" y="406.4" width="4.3" height="3.6" fill="#C6403F" opacity="0.5"/>
<line x1="119.6" y1="289.7" x2="119.6" y2="293.6" stroke="#2E6BD6" stroke-width="1"/>
<rect x="117.4" y="291.4" width="4.3" height="0.9" fill="#2E6BD6"/>
<rect x="117.4" y="405.8" width="4.3" height="4.2" fill="#2E6BD6" opacity="0.5"/>
<line x1="126.1" y1="285.3" x2="126.1" y2="292.2" stroke="#C6403F" stroke-width="1"/>
<rect x="123.9" y="286.2" width="4.3" height="3.2" fill="#C6403F"/>
<rect x="123.9" y="402.2" width="4.3" height="7.8" fill="#C6403F" opacity="0.5"/>
<line x1="132.6" y1="282.3" x2="132.6" y2="286.8" stroke="#C6403F" stroke-width="1"/>
<rect x="130.5" y="282.8" width="4.3" height="3.1" fill="#C6403F"/>
<rect x="130.5" y="401.1" width="4.3" height="8.9" fill="#C6403F" opacity="0.5"/>
<line x1="139.1" y1="277.7" x2="139.1" y2="282.8" stroke="#2E6BD6" stroke-width="1"/>
<rect x="137.0" y="279.7" width="4.3" height="1.3" fill="#2E6BD6"/>
<rect x="137.0" y="401.5" width="4.3" height="8.5" fill="#2E6BD6" opacity="0.5"/>
<line x1="145.6" y1="283.2" x2="145.6" y2="293.9" stroke="#C6403F" stroke-width="1"/>
<rect x="143.5" y="283.6" width="4.3" height="1.5" fill="#C6403F"/>
<rect x="143.5" y="404.9" width="4.3" height="5.1" fill="#C6403F" opacity="0.5"/>
<line x1="152.2" y1="281.4" x2="152.2" y2="287.4" stroke="#2E6BD6" stroke-width="1"/>
<rect x="150.0" y="281.4" width="4.3" height="3.2" fill="#2E6BD6"/>
<rect x="150.0" y="406.8" width="4.3" height="3.2" fill="#2E6BD6" opacity="0.5"/>
<line x1="158.7" y1="284.6" x2="158.7" y2="287.1" stroke="#2E6BD6" stroke-width="1"/>
<rect x="156.5" y="285.4" width="4.3" height="0.9" fill="#2E6BD6"/>
<rect x="156.5" y="407.8" width="4.3" height="2.2" fill="#2E6BD6" opacity="0.5"/>
<line x1="165.2" y1="283.9" x2="165.2" y2="287.1" stroke="#2E6BD6" stroke-width="1"/>
<rect x="163.1" y="284.8" width="4.3" height="0.9" fill="#2E6BD6"/>
<rect x="163.1" y="407.6" width="4.3" height="2.4" fill="#2E6BD6" opacity="0.5"/>
<line x1="171.7" y1="285.7" x2="171.7" y2="287.6" stroke="#2E6BD6" stroke-width="1"/>
<rect x="169.6" y="286.0" width="4.3" height="1.0" fill="#2E6BD6"/>
<rect x="169.6" y="407.8" width="4.3" height="2.2" fill="#2E6BD6" opacity="0.5"/>
<line x1="178.2" y1="285.7" x2="178.2" y2="289.4" stroke="#2E6BD6" stroke-width="1"/>
<rect x="176.1" y="286.9" width="4.3" height="1.5" fill="#2E6BD6"/>
<rect x="176.1" y="408.0" width="4.3" height="2.0" fill="#2E6BD6" opacity="0.5"/>
<line x1="184.8" y1="287.2" x2="184.8" y2="294.0" stroke="#2E6BD6" stroke-width="1"/>
<rect x="182.6" y="288.0" width="4.3" height="5.3" fill="#2E6BD6"/>
<rect x="182.6" y="406.5" width="4.3" height="3.5" fill="#2E6BD6" opacity="0.5"/>
<line x1="191.3" y1="292.8" x2="191.3" y2="296.8" stroke="#C6403F" stroke-width="1"/>
<rect x="189.1" y="293.6" width="4.3" height="2.8" fill="#C6403F"/>
<rect x="189.1" y="407.8" width="4.3" height="2.2" fill="#C6403F" opacity="0.5"/>
<line x1="197.8" y1="281.9" x2="197.8" y2="292.1" stroke="#C6403F" stroke-width="1"/>
<rect x="195.6" y="283.9" width="4.3" height="8.2" fill="#C6403F"/>
<rect x="195.6" y="396.3" width="4.3" height="13.7" fill="#C6403F" opacity="0.5"/>
<line x1="204.3" y1="284.1" x2="204.3" y2="290.1" stroke="#C6403F" stroke-width="1"/>
<rect x="202.2" y="285.1" width="4.3" height="0.9" fill="#C6403F"/>
<rect x="202.2" y="405.8" width="4.3" height="4.2" fill="#C6403F" opacity="0.5"/>
<line x1="210.8" y1="286.2" x2="210.8" y2="293.1" stroke="#2E6BD6" stroke-width="1"/>
<rect x="208.7" y="286.4" width="4.3" height="5.3" fill="#2E6BD6"/>
<rect x="208.7" y="403.5" width="4.3" height="6.5" fill="#2E6BD6" opacity="0.5"/>
<line x1="217.4" y1="291.3" x2="217.4" y2="296.1" stroke="#2E6BD6" stroke-width="1"/>
<rect x="215.2" y="292.8" width="4.3" height="2.0" fill="#2E6BD6"/>
<rect x="215.2" y="406.5" width="4.3" height="3.5" fill="#2E6BD6" opacity="0.5"/>
<line x1="223.9" y1="293.6" x2="223.9" y2="295.7" stroke="#C6403F" stroke-width="1"/>
<rect x="221.7" y="294.5" width="4.3" height="0.9" fill="#C6403F"/>
<rect x="221.7" y="408.3" width="4.3" height="1.7" fill="#C6403F" opacity="0.5"/>
<line x1="230.4" y1="288.5" x2="230.4" y2="295.2" stroke="#C6403F" stroke-width="1"/>
<rect x="228.2" y="289.0" width="4.3" height="5.3" fill="#C6403F"/>
<rect x="228.2" y="405.0" width="4.3" height="5.0" fill="#C6403F" opacity="0.5"/>
<line x1="236.9" y1="288.0" x2="236.9" y2="291.1" stroke="#C6403F" stroke-width="1"/>
<rect x="234.8" y="289.7" width="4.3" height="0.9" fill="#C6403F"/>
<rect x="234.8" y="407.4" width="4.3" height="2.6" fill="#C6403F" opacity="0.5"/>
<line x1="243.4" y1="288.7" x2="243.4" y2="293.2" stroke="#2E6BD6" stroke-width="1"/>
<rect x="241.3" y="288.7" width="4.3" height="3.2" fill="#2E6BD6"/>
<rect x="241.3" y="407.9" width="4.3" height="2.1" fill="#2E6BD6" opacity="0.5"/>
<line x1="250.0" y1="286.2" x2="250.0" y2="294.3" stroke="#C6403F" stroke-width="1"/>
<rect x="247.8" y="288.5" width="4.3" height="4.3" fill="#C6403F"/>
<rect x="247.8" y="406.4" width="4.3" height="3.6" fill="#C6403F" opacity="0.5"/>
<line x1="256.5" y1="285.3" x2="256.5" y2="290.8" stroke="#2E6BD6" stroke-width="1"/>
<rect x="254.3" y="287.1" width="4.3" height="2.4" fill="#2E6BD6"/>
<rect x="254.3" y="406.2" width="4.3" height="3.8" fill="#2E6BD6" opacity="0.5"/>
<line x1="263.0" y1="287.8" x2="263.0" y2="292.8" stroke="#2E6BD6" stroke-width="1"/>
<rect x="260.8" y="287.8" width="4.3" height="4.9" fill="#2E6BD6"/>
<rect x="260.8" y="405.8" width="4.3" height="4.2" fill="#2E6BD6" opacity="0.5"/>
<line x1="269.5" y1="288.5" x2="269.5" y2="292.4" stroke="#2E6BD6" stroke-width="1"/>
<rect x="267.4" y="291.0" width="4.3" height="1.0" fill="#2E6BD6"/>
<rect x="267.4" y="407.4" width="4.3" height="2.6" fill="#2E6BD6" opacity="0.5"/>
<line x1="276.0" y1="290.4" x2="276.0" y2="294.3" stroke="#2E6BD6" stroke-width="1"/>
<rect x="273.9" y="292.0" width="4.3" height="1.4" fill="#2E6BD6"/>
<rect x="273.9" y="408.1" width="4.3" height="1.9" fill="#2E6BD6" opacity="0.5"/>
<line x1="282.5" y1="292.1" x2="282.5" y2="294.9" stroke="#C6403F" stroke-width="1"/>
<rect x="280.4" y="293.1" width="4.3" height="0.9" fill="#C6403F"/>
<rect x="280.4" y="408.4" width="4.3" height="1.6" fill="#C6403F" opacity="0.5"/>
<line x1="289.1" y1="292.0" x2="289.1" y2="296.3" stroke="#C6403F" stroke-width="1"/>
<rect x="286.9" y="292.0" width="4.3" height="1.3" fill="#C6403F"/>
<rect x="286.9" y="407.8" width="4.3" height="2.2" fill="#C6403F" opacity="0.5"/>
<line x1="295.6" y1="290.3" x2="295.6" y2="293.5" stroke="#C6403F" stroke-width="1"/>
<rect x="293.4" y="291.0" width="4.3" height="1.0" fill="#C6403F"/>
<rect x="293.4" y="407.8" width="4.3" height="2.2" fill="#C6403F" opacity="0.5"/>
<line x1="302.1" y1="291.1" x2="302.1" y2="296.8" stroke="#2E6BD6" stroke-width="1"/>
<rect x="300.0" y="291.8" width="4.3" height="2.6" fill="#2E6BD6"/>
<rect x="300.0" y="406.7" width="4.3" height="3.3" fill="#2E6BD6" opacity="0.5"/>
<line x1="308.6" y1="293.8" x2="308.6" y2="295.6" stroke="#C6403F" stroke-width="1"/>
<rect x="306.5" y="294.6" width="4.3" height="0.9" fill="#C6403F"/>
<rect x="306.5" y="408.3" width="4.3" height="1.7" fill="#C6403F" opacity="0.5"/>
<line x1="315.1" y1="292.8" x2="315.1" y2="295.0" stroke="#2E6BD6" stroke-width="1"/>
<rect x="313.0" y="292.9" width="4.3" height="1.8" fill="#2E6BD6"/>
<rect x="313.0" y="408.7" width="4.3" height="1.3" fill="#2E6BD6" opacity="0.5"/>
<line x1="321.7" y1="287.2" x2="321.7" y2="293.9" stroke="#C6403F" stroke-width="1"/>
<rect x="319.5" y="289.0" width="4.3" height="4.9" fill="#C6403F"/>
<rect x="319.5" y="402.5" width="4.3" height="7.5" fill="#C6403F" opacity="0.5"/>
<line x1="328.2" y1="288.0" x2="328.2" y2="293.1" stroke="#2E6BD6" stroke-width="1"/>
<rect x="326.0" y="288.2" width="4.3" height="3.6" fill="#2E6BD6"/>
<rect x="326.0" y="407.4" width="4.3" height="2.6" fill="#2E6BD6" opacity="0.5"/>
<line x1="334.7" y1="289.9" x2="334.7" y2="293.2" stroke="#C6403F" stroke-width="1"/>
<rect x="332.6" y="289.9" width="4.3" height="2.6" fill="#C6403F"/>
<rect x="332.6" y="407.7" width="4.3" height="2.3" fill="#C6403F" opacity="0.5"/>
<line x1="341.2" y1="281.2" x2="341.2" y2="292.4" stroke="#2E6BD6" stroke-width="1"/>
<rect x="339.1" y="286.7" width="4.3" height="2.2" fill="#2E6BD6"/>
<rect x="339.1" y="400.5" width="4.3" height="9.5" fill="#2E6BD6" opacity="0.5"/>
<line x1="347.7" y1="288.3" x2="347.7" y2="291.8" stroke="#2E6BD6" stroke-width="1"/>
<rect x="345.6" y="290.1" width="4.3" height="1.4" fill="#2E6BD6"/>
<rect x="345.6" y="407.7" width="4.3" height="2.3" fill="#2E6BD6" opacity="0.5"/>
<line x1="354.3" y1="290.1" x2="354.3" y2="294.6" stroke="#2E6BD6" stroke-width="1"/>
<rect x="352.1" y="290.3" width="4.3" height="2.8" fill="#2E6BD6"/>
<rect x="352.1" y="407.5" width="4.3" height="2.5" fill="#2E6BD6" opacity="0.5"/>
<line x1="360.8" y1="284.3" x2="360.8" y2="291.5" stroke="#2E6BD6" stroke-width="1"/>
<rect x="358.6" y="288.5" width="4.3" height="2.0" fill="#2E6BD6"/>
<rect x="358.6" y="404.2" width="4.3" height="5.8" fill="#2E6BD6" opacity="0.5"/>
<line x1="367.3" y1="287.1" x2="367.3" y2="293.6" stroke="#C6403F" stroke-width="1"/>
<rect x="365.1" y="291.0" width="4.3" height="1.3" fill="#C6403F"/>
<rect x="365.1" y="406.2" width="4.3" height="3.8" fill="#C6403F" opacity="0.5"/>
<line x1="373.8" y1="283.6" x2="373.8" y2="291.7" stroke="#C6403F" stroke-width="1"/>
<rect x="371.7" y="284.6" width="4.3" height="5.2" fill="#C6403F"/>
<rect x="371.7" y="402.4" width="4.3" height="7.6" fill="#C6403F" opacity="0.5"/>
<line x1="380.3" y1="285.1" x2="380.3" y2="291.8" stroke="#2E6BD6" stroke-width="1"/>
<rect x="378.2" y="285.1" width="4.3" height="4.9" fill="#2E6BD6"/>
<rect x="378.2" y="404.7" width="4.3" height="5.3" fill="#2E6BD6" opacity="0.5"/>
<line x1="386.9" y1="276.9" x2="386.9" y2="290.1" stroke="#C6403F" stroke-width="1"/>
<rect x="384.7" y="279.8" width="4.3" height="8.6" fill="#C6403F"/>
<rect x="384.7" y="393.4" width="4.3" height="16.6" fill="#C6403F" opacity="0.5"/>
<line x1="393.4" y1="277.0" x2="393.4" y2="285.5" stroke="#2E6BD6" stroke-width="1"/>
<rect x="391.2" y="277.2" width="4.3" height="5.9" fill="#2E6BD6"/>
<rect x="391.2" y="403.0" width="4.3" height="7.0" fill="#2E6BD6" opacity="0.5"/>
<line x1="399.9" y1="281.5" x2="399.9" y2="287.9" stroke="#C6403F" stroke-width="1"/>
<rect x="397.7" y="283.2" width="4.3" height="0.9" fill="#C6403F"/>
<rect x="397.7" y="406.4" width="4.3" height="3.6" fill="#C6403F" opacity="0.5"/>
<line x1="406.4" y1="282.1" x2="406.4" y2="285.8" stroke="#2E6BD6" stroke-width="1"/>
<rect x="404.3" y="282.6" width="4.3" height="1.5" fill="#2E6BD6"/>
<rect x="404.3" y="406.9" width="4.3" height="3.1" fill="#2E6BD6" opacity="0.5"/>
<line x1="412.9" y1="285.0" x2="412.9" y2="289.3" stroke="#2E6BD6" stroke-width="1"/>
<rect x="410.8" y="285.0" width="4.3" height="2.9" fill="#2E6BD6"/>
<rect x="410.8" y="407.7" width="4.3" height="2.3" fill="#2E6BD6" opacity="0.5"/>
<line x1="419.5" y1="285.8" x2="419.5" y2="289.9" stroke="#2E6BD6" stroke-width="1"/>
<rect x="417.3" y="287.6" width="4.3" height="2.1" fill="#2E6BD6"/>
<rect x="417.3" y="407.7" width="4.3" height="2.3" fill="#2E6BD6" opacity="0.5"/>
<line x1="426.0" y1="288.2" x2="426.0" y2="297.1" stroke="#2E6BD6" stroke-width="1"/>
<rect x="423.8" y="289.6" width="4.3" height="4.5" fill="#2E6BD6"/>
<rect x="423.8" y="404.8" width="4.3" height="5.2" fill="#2E6BD6" opacity="0.5"/>
<line x1="432.5" y1="291.3" x2="432.5" y2="296.0" stroke="#C6403F" stroke-width="1"/>
<rect x="430.3" y="291.7" width="4.3" height="4.3" fill="#C6403F"/>
<rect x="430.3" y="408.5" width="4.3" height="1.5" fill="#C6403F" opacity="0.5"/>
<line x1="439.0" y1="287.8" x2="439.0" y2="292.5" stroke="#C6403F" stroke-width="1"/>
<rect x="436.9" y="290.1" width="4.3" height="0.9" fill="#C6403F"/>
<rect x="436.9" y="408.4" width="4.3" height="1.6" fill="#C6403F" opacity="0.5"/>
<line x1="445.5" y1="288.3" x2="445.5" y2="291.3" stroke="#2E6BD6" stroke-width="1"/>
<rect x="443.4" y="289.7" width="4.3" height="0.9" fill="#2E6BD6"/>
<rect x="443.4" y="408.4" width="4.3" height="1.6" fill="#2E6BD6" opacity="0.5"/>
<line x1="452.0" y1="282.1" x2="452.0" y2="291.4" stroke="#C6403F" stroke-width="1"/>
<rect x="449.9" y="286.7" width="4.3" height="3.8" fill="#C6403F"/>
<rect x="449.9" y="405.7" width="4.3" height="4.3" fill="#C6403F" opacity="0.5"/>
<line x1="458.6" y1="285.7" x2="458.6" y2="289.3" stroke="#2E6BD6" stroke-width="1"/>
<rect x="456.4" y="285.7" width="4.3" height="2.1" fill="#2E6BD6"/>
<rect x="456.4" y="407.7" width="4.3" height="2.3" fill="#2E6BD6" opacity="0.5"/>
<line x1="465.1" y1="283.6" x2="465.1" y2="288.9" stroke="#C6403F" stroke-width="1"/>
<rect x="462.9" y="285.0" width="4.3" height="3.9" fill="#C6403F"/>
<rect x="462.9" y="407.3" width="4.3" height="2.7" fill="#C6403F" opacity="0.5"/>
<line x1="471.6" y1="283.9" x2="471.6" y2="286.9" stroke="#2E6BD6" stroke-width="1"/>
<rect x="469.5" y="285.3" width="4.3" height="0.9" fill="#2E6BD6"/>
<rect x="469.5" y="408.3" width="4.3" height="1.7" fill="#2E6BD6" opacity="0.5"/>
<line x1="478.1" y1="284.7" x2="478.1" y2="287.9" stroke="#2E6BD6" stroke-width="1"/>
<rect x="476.0" y="285.7" width="4.3" height="2.0" fill="#2E6BD6"/>
<rect x="476.0" y="408.0" width="4.3" height="2.0" fill="#2E6BD6" opacity="0.5"/>
<line x1="484.6" y1="287.1" x2="484.6" y2="291.3" stroke="#2E6BD6" stroke-width="1"/>
<rect x="482.5" y="287.4" width="4.3" height="2.6" fill="#2E6BD6"/>
<rect x="482.5" y="408.1" width="4.3" height="1.9" fill="#2E6BD6" opacity="0.5"/>
<line x1="491.2" y1="289.0" x2="491.2" y2="293.3" stroke="#2E6BD6" stroke-width="1"/>
<rect x="489.0" y="289.4" width="4.3" height="2.0" fill="#2E6BD6"/>
<rect x="489.0" y="408.5" width="4.3" height="1.5" fill="#2E6BD6" opacity="0.5"/>
<line x1="497.7" y1="287.9" x2="497.7" y2="291.4" stroke="#C6403F" stroke-width="1"/>
<rect x="495.5" y="288.9" width="4.3" height="1.7" fill="#C6403F"/>
<rect x="495.5" y="408.1" width="4.3" height="1.9" fill="#C6403F" opacity="0.5"/>
<line x1="504.2" y1="277.3" x2="504.2" y2="289.6" stroke="#C6403F" stroke-width="1"/>
<rect x="502.1" y="280.4" width="4.3" height="8.1" fill="#C6403F"/>
<rect x="502.1" y="393.5" width="4.3" height="16.5" fill="#C6403F" opacity="0.5"/>
<line x1="510.7" y1="280.7" x2="510.7" y2="284.6" stroke="#2E6BD6" stroke-width="1"/>
<rect x="508.6" y="281.4" width="4.3" height="1.1" fill="#2E6BD6"/>
<rect x="508.6" y="406.8" width="4.3" height="3.2" fill="#2E6BD6" opacity="0.5"/>
<line x1="517.2" y1="279.4" x2="517.2" y2="284.1" stroke="#2E6BD6" stroke-width="1"/>
<rect x="515.1" y="282.2" width="4.3" height="0.9" fill="#2E6BD6"/>
<rect x="515.1" y="406.9" width="4.3" height="3.1" fill="#2E6BD6" opacity="0.5"/>
<line x1="523.8" y1="274.8" x2="523.8" y2="284.1" stroke="#C6403F" stroke-width="1"/>
<rect x="521.6" y="276.3" width="4.3" height="4.5" fill="#C6403F"/>
<rect x="521.6" y="402.2" width="4.3" height="7.8" fill="#C6403F" opacity="0.5"/>
<line x1="530.3" y1="256.7" x2="530.3" y2="274.4" stroke="#2E6BD6" stroke-width="1"/>
<rect x="528.1" y="263.5" width="4.3" height="7.0" fill="#2E6BD6"/>
<rect x="528.1" y="379.9" width="4.3" height="30.1" fill="#2E6BD6" opacity="0.5"/>
<line x1="536.8" y1="266.9" x2="536.8" y2="273.8" stroke="#2E6BD6" stroke-width="1"/>
<rect x="534.6" y="267.0" width="4.3" height="3.3" fill="#2E6BD6"/>
<rect x="534.6" y="404.0" width="4.3" height="6.0" fill="#2E6BD6" opacity="0.5"/>
<line x1="543.3" y1="267.6" x2="543.3" y2="273.8" stroke="#2E6BD6" stroke-width="1"/>
<rect x="541.2" y="268.8" width="4.3" height="3.2" fill="#2E6BD6"/>
<rect x="541.2" y="405.9" width="4.3" height="4.1" fill="#2E6BD6" opacity="0.5"/>
<line x1="549.8" y1="265.7" x2="549.8" y2="274.1" stroke="#2E6BD6" stroke-width="1"/>
<rect x="547.7" y="267.7" width="4.3" height="2.1" fill="#2E6BD6"/>
<rect x="547.7" y="400.2" width="4.3" height="9.8" fill="#2E6BD6" opacity="0.5"/>
<line x1="556.4" y1="260.3" x2="556.4" y2="276.2" stroke="#2E6BD6" stroke-width="1"/>
<rect x="554.2" y="262.0" width="4.3" height="10.5" fill="#2E6BD6"/>
<rect x="554.2" y="393.1" width="4.3" height="16.9" fill="#2E6BD6" opacity="0.5"/>
<line x1="562.9" y1="241.3" x2="562.9" y2="269.6" stroke="#C6403F" stroke-width="1"/>
<rect x="560.7" y="251.8" width="4.3" height="15.2" fill="#C6403F"/>
<rect x="560.7" y="348.0" width="4.3" height="62.0" fill="#C6403F" opacity="0.5"/>
<line x1="569.4" y1="246.9" x2="569.4" y2="255.6" stroke="#C6403F" stroke-width="1"/>
<rect x="567.2" y="248.5" width="4.3" height="2.9" fill="#C6403F"/>
<rect x="567.2" y="392.6" width="4.3" height="17.4" fill="#C6403F" opacity="0.5"/>
<line x1="575.9" y1="225.3" x2="575.9" y2="253.6" stroke="#C6403F" stroke-width="1"/>
<rect x="573.8" y="234.6" width="4.3" height="17.6" fill="#C6403F"/>
<rect x="573.8" y="368.9" width="4.3" height="41.1" fill="#C6403F" opacity="0.5"/>
<line x1="582.4" y1="188.4" x2="582.4" y2="235.3" stroke="#C6403F" stroke-width="1"/>
<rect x="580.3" y="203.0" width="4.3" height="30.7" fill="#C6403F"/>
<rect x="580.3" y="348.0" width="4.3" height="62.0" fill="#C6403F" opacity="0.5"/>
<line x1="589.0" y1="198.7" x2="589.0" y2="210.9" stroke="#C6403F" stroke-width="1"/>
<rect x="586.8" y="198.7" width="4.3" height="4.3" fill="#C6403F"/>
<rect x="586.8" y="398.9" width="4.3" height="11.1" fill="#C6403F" opacity="0.5"/>
<line x1="595.5" y1="170.8" x2="595.5" y2="196.0" stroke="#C6403F" stroke-width="1"/>
<rect x="593.3" y="186.4" width="4.3" height="9.6" fill="#C6403F"/>
<rect x="593.3" y="396.1" width="4.3" height="13.9" fill="#C6403F" opacity="0.5"/>
<line x1="602.0" y1="176.4" x2="602.0" y2="199.1" stroke="#2E6BD6" stroke-width="1"/>
<rect x="599.8" y="178.6" width="4.3" height="14.1" fill="#2E6BD6"/>
<rect x="599.8" y="398.6" width="4.3" height="11.4" fill="#2E6BD6" opacity="0.5"/>
<line x1="608.5" y1="170.4" x2="608.5" y2="198.8" stroke="#C6403F" stroke-width="1"/>
<rect x="606.4" y="176.1" width="4.3" height="7.7" fill="#C6403F"/>
<rect x="606.4" y="373.8" width="4.3" height="36.2" fill="#C6403F" opacity="0.5"/>
<line x1="615.0" y1="176.1" x2="615.0" y2="191.8" stroke="#2E6BD6" stroke-width="1"/>
<rect x="612.9" y="176.2" width="4.3" height="8.2" fill="#2E6BD6"/>
<rect x="612.9" y="386.8" width="4.3" height="23.2" fill="#2E6BD6" opacity="0.5"/>
<line x1="621.5" y1="181.4" x2="621.5" y2="197.8" stroke="#2E6BD6" stroke-width="1"/>
<rect x="619.4" y="192.0" width="4.3" height="2.0" fill="#2E6BD6"/>
<rect x="619.4" y="394.5" width="4.3" height="15.5" fill="#2E6BD6" opacity="0.5"/>
<line x1="628.1" y1="194.5" x2="628.1" y2="221.5" stroke="#2E6BD6" stroke-width="1"/>
<rect x="625.9" y="194.5" width="4.3" height="23.0" fill="#2E6BD6"/>
<rect x="625.9" y="383.1" width="4.3" height="26.9" fill="#2E6BD6" opacity="0.5"/>
<line x1="634.6" y1="204.3" x2="634.6" y2="225.0" stroke="#C6403F" stroke-width="1"/>
<rect x="632.4" y="206.2" width="4.3" height="14.6" fill="#C6403F"/>
<rect x="632.4" y="380.6" width="4.3" height="29.4" fill="#C6403F" opacity="0.5"/>
<line x1="641.1" y1="194.2" x2="641.1" y2="210.9" stroke="#C6403F" stroke-width="1"/>
<rect x="639.0" y="197.7" width="4.3" height="8.5" fill="#C6403F"/>
<rect x="639.0" y="394.4" width="4.3" height="15.6" fill="#C6403F" opacity="0.5"/>
<line x1="647.6" y1="191.0" x2="647.6" y2="200.6" stroke="#2E6BD6" stroke-width="1"/>
<rect x="645.5" y="197.0" width="4.3" height="2.0" fill="#2E6BD6"/>
<rect x="645.5" y="399.9" width="4.3" height="10.1" fill="#2E6BD6" opacity="0.5"/>
<line x1="654.1" y1="192.4" x2="654.1" y2="207.0" stroke="#2E6BD6" stroke-width="1"/>
<rect x="652.0" y="194.8" width="4.3" height="2.0" fill="#2E6BD6"/>
<rect x="652.0" y="400.2" width="4.3" height="9.8" fill="#2E6BD6" opacity="0.5"/>
<line x1="660.7" y1="189.2" x2="660.7" y2="201.7" stroke="#2E6BD6" stroke-width="1"/>
<rect x="658.5" y="191.0" width="4.3" height="10.6" fill="#2E6BD6"/>
<rect x="658.5" y="400.5" width="4.3" height="9.5" fill="#2E6BD6" opacity="0.5"/>
<line x1="667.2" y1="198.3" x2="667.2" y2="205.8" stroke="#2E6BD6" stroke-width="1"/>
<rect x="665.0" y="199.5" width="4.3" height="0.9" fill="#2E6BD6"/>
<rect x="665.0" y="401.0" width="4.3" height="9.0" fill="#2E6BD6" opacity="0.5"/>
<line x1="673.7" y1="177.6" x2="673.7" y2="202.3" stroke="#C6403F" stroke-width="1"/>
<rect x="671.6" y="177.9" width="4.3" height="20.9" fill="#C6403F"/>
<rect x="671.6" y="371.1" width="4.3" height="38.9" fill="#C6403F" opacity="0.5"/>
<line x1="680.2" y1="122.5" x2="680.2" y2="173.6" stroke="#C6403F" stroke-width="1"/>
<rect x="678.1" y="130.8" width="4.3" height="40.2" fill="#C6403F"/>
<rect x="678.1" y="348.0" width="4.3" height="62.0" fill="#C6403F" opacity="0.5"/>
<line x1="686.7" y1="84.5" x2="686.7" y2="127.3" stroke="#C6403F" stroke-width="1"/>
<rect x="684.6" y="97.7" width="4.3" height="24.4" fill="#C6403F"/>
<rect x="684.6" y="348.0" width="4.3" height="62.0" fill="#C6403F" opacity="0.5"/>
<line x1="12" y1="410" x2="690" y2="410" stroke="#E6E8EC" stroke-width="1"/>
<text x="696" y="357" font-size="9.5" fill="#667085">거래량</text>
<text x="13.1" y="425" font-size="10" text-anchor="start" fill="#667085">2025년 4월</text>
<text x="158.7" y="425" font-size="10" text-anchor="middle" fill="#667085">5월</text>
<text x="282.5" y="425" font-size="10" text-anchor="middle" fill="#667085">6월</text>
<text x="406.4" y="425" font-size="10" text-anchor="middle" fill="#667085">7월</text>
<text x="556.4" y="425" font-size="10" text-anchor="middle" fill="#667085">8월</text>
<text x="686.7" y="425" font-size="10" text-anchor="middle" fill="#667085">9월</text>
<line x1="12" y1="270.5" x2="690" y2="270.5" stroke="#B45309" stroke-width="1.6" stroke-dasharray="6 4"/>
<text x="16.0" y="264.5" font-size="11" text-anchor="start" fill="#B45309" font-weight="700">8,860원 — 먼저 저항, 나중에 지지</text>
<text x="702" y="457" font-size="9.5" text-anchor="end" fill="#9AA1AB">HJ중공업(097230) 일봉 · 2025년 4월~2025년 9월 · 수정주가</text>
<text x="10" y="457" font-size="9.5" fill="#9AA1AB">점선 = 20일 이동평균</text>
<text x="10" y="440" font-size="11.5" fill="#667085">※ 과거 특정 구간의 실제 기록이며 종목 추천이 아닙니다.</text>
</svg>